<?xml version="1.0" encoding="UTF-8" standalone="no"?>
<svg
   width="32"
   height="32"
   version="1.1"
   id="svg45"
   sodipodi:docname="32.svg"
   xml:space="preserve"
   inkscape:version="1.4.3 (0d15f75042, 2025-12-25)"
   xmlns:inkscape="http://www.inkscape.org/namespaces/inkscape"
   xmlns:sodipodi="http://sodipodi.sourceforge.net/DTD/sodipodi-0.dtd"
   xmlns:xlink="http://www.w3.org/1999/xlink"
   xmlns="http://www.w3.org/2000/svg"
   xmlns:svg="http://www.w3.org/2000/svg"
   xmlns:rdf="http://www.w3.org/1999/02/22-rdf-syntax-ns#"
   xmlns:cc="http://creativecommons.org/ns#"
   xmlns:dc="http://purl.org/dc/elements/1.1/"><sodipodi:namedview
     id="namedview45"
     pagecolor="#cbcbcb"
     bordercolor="#000000"
     borderopacity="0.25"
     inkscape:showpageshadow="false"
     inkscape:pageopacity="0.0"
     inkscape:pagecheckerboard="0"
     inkscape:deskcolor="#d1d1d1"
     showborder="false"
     borderlayer="false"
     inkscape:zoom="1"
     inkscape:cx="16"
     inkscape:cy="19"
     inkscape:window-width="2560"
     inkscape:window-height="1373"
     inkscape:window-x="0"
     inkscape:window-y="0"
     inkscape:window-maximized="1"
     inkscape:current-layer="svg45" /><defs
     id="defs19"><linearGradient
       id="linearGradient59"
       x1="9.9863"
       x2="16.655"
       y1="9.7586"
       y2="9.7586"
       gradientTransform="matrix(0,4.1109,-5.0469,0,66.828,-38.866)"
       gradientUnits="userSpaceOnUse"><stop
         stop-color="#4d4d4d"
         offset="0"
         id="stop58"
         style="stop-color:#4d4d4d;stop-opacity:1" /><stop
         stop-color="#333"
         offset="1"
         id="stop59"
         style="stop-color:#1a1a1a;stop-opacity:1" /></linearGradient><linearGradient
       id="linearGradient3174"
       x1="24"
       x2="24"
       y1="6.24"
       y2="41.76"
       gradientTransform="matrix(0.67568,0,0,0.67568,-0.21621935,-0.21621)"
       gradientUnits="userSpaceOnUse"><stop
         stop-color="#fff"
         offset="0"
         id="stop1" /><stop
         stop-color="#fff"
         stop-opacity=".23529"
         offset=".025915"
         id="stop2" /><stop
         stop-color="#fff"
         stop-opacity=".15686"
         offset=".95833"
         id="stop3" /><stop
         stop-color="#fff"
         stop-opacity=".39216"
         offset="1"
         id="stop4" /></linearGradient><radialGradient
       id="radialGradient2976"
       cx="4.993"
       cy="43.5"
       r="2.5"
       gradientTransform="matrix(2.0038 0 0 1.4 27.988 -17.4)"
       gradientUnits="userSpaceOnUse"><stop
         stop-color="#181818"
         offset="0"
         id="stop5" /><stop
         stop-color="#181818"
         stop-opacity="0"
         offset="1"
         id="stop6" /></radialGradient><radialGradient
       id="radialGradient2978"
       cx="4.993"
       cy="43.5"
       r="2.5"
       gradientTransform="matrix(2.0038 0 0 1.4 -20.012 -104.4)"
       gradientUnits="userSpaceOnUse"><stop
         stop-color="#181818"
         offset="0"
         id="stop7" /><stop
         stop-color="#181818"
         stop-opacity="0"
         offset="1"
         id="stop8" /></radialGradient><linearGradient
       id="linearGradient2980"
       x1="25.058"
       x2="25.058"
       y1="47.028"
       y2="39.999"
       gradientUnits="userSpaceOnUse"><stop
         stop-color="#181818"
         stop-opacity="0"
         offset="0"
         id="stop9" /><stop
         stop-color="#181818"
         offset=".5"
         id="stop10" /><stop
         stop-color="#181818"
         stop-opacity="0"
         offset="1"
         id="stop11" /></linearGradient><linearGradient
       id="linearGradient11527-6-5"
       x1="2035.2"
       x2="2035.2"
       y1="3208.1"
       y2="3242"
       gradientTransform="matrix(.57485 0 0 .42976 -1156 -1369.8)"
       gradientUnits="userSpaceOnUse"><stop
         stop-color="#ed5353"
         offset="0"
         id="stop12" /><stop
         stop-color="#c6262e"
         offset="1"
         id="stop13" /></linearGradient><linearGradient
       id="linearGradient12398-3"
       x1="71.204"
       x2="71.204"
       y1="6.2376"
       y2="44.341"
       gradientTransform="matrix(.35135 0 0 .35135 -9.2037 7.0907)"
       gradientUnits="userSpaceOnUse"><stop
         stop-color="#fff"
         offset="0"
         id="stop14" /><stop
         stop-color="#fff"
         stop-opacity=".23529"
         offset=".50776"
         id="stop15" /><stop
         stop-color="#fff"
         stop-opacity=".15686"
         offset=".83457"
         id="stop16" /><stop
         stop-color="#fff"
         stop-opacity=".39216"
         offset="1"
         id="stop17" /></linearGradient><linearGradient
       id="linearGradient1"
       x1="9.9863"
       x2="16.655"
       y1="9.7586"
       y2="9.7586"
       gradientTransform="matrix(0,4.1109,-5.0469,0,66.828,-38.866)"
       gradientUnits="userSpaceOnUse"><stop
         stop-color="#4d4d4d"
         offset="0"
         id="stop18" /><stop
         stop-color="#333"
         offset="1"
         id="stop19" /></linearGradient><linearGradient
       inkscape:collect="always"
       xlink:href="#linearGradient59"
       id="linearGradient45"
       gradientUnits="userSpaceOnUse"
       gradientTransform="matrix(0,4.93308,-6.0562801,0,76.993601,-81.839401)"
       x1="10.902492"
       y1="9.7586002"
       x2="15.759475"
       y2="9.7586002" /><filter
       color-interpolation-filters="sRGB"
       id="filter3831"
       x="-0.076499999"
       y="-0.067999999"
       width="1.153"
       height="1.136"><feGaussianBlur
         stdDeviation="0.6375"
         id="feGaussianBlur3833" /></filter><clipPath
       id="clipPath3823"><path
         d="M 108.8125,58 C 107.25437,58 106,59.254375 106,60.8125 l 0,24.375 C 106,86.745625 107.25437,88 108.8125,88 l 24.375,0 C 134.74562,88 136,86.745625 136,85.1875 l 0,-24.375 C 136,59.254375 134.74562,58 133.1875,58 l -24.375,0 z m 7.1875,4.5 10,0 0,8.75 5,0 -10,13.75 -10,-13.75 5,0 0,-8.75 z"
         id="path3825"
         style="fill:#ffffff;fill-opacity:1;stroke:none" /></clipPath><linearGradient
       x1="65.262688"
       y1="64.205269"
       x2="65.262688"
       y2="50.068527"
       id="linearGradient3812"
       xlink:href="#linearGradient5010"
       gradientUnits="userSpaceOnUse"
       gradientTransform="matrix(0.625,0,0,0.625,78.5,32.25)" /><filter
       color-interpolation-filters="sRGB"
       id="filter3806"
       x="-0.096000004"
       y="-0.096000004"
       width="1.192"
       height="1.192"><feGaussianBlur
         stdDeviation="1.2"
         id="feGaussianBlur3808" /></filter><linearGradient
       x1="70"
       y1="54"
       x2="70"
       y2="75.095024"
       id="linearGradient3788"
       xlink:href="#linearGradient3737"
       gradientUnits="userSpaceOnUse"
       gradientTransform="translate(0,4)" /><linearGradient
       x1="56"
       y1="72"
       x2="88"
       y2="72"
       id="linearGradient3773"
       xlink:href="#linearGradient3778"
       gradientUnits="userSpaceOnUse"
       gradientTransform="matrix(0.9375,0,0,0.9375,-140.5,3.5)" /><linearGradient
       x1="65.262688"
       y1="64.205269"
       x2="65.262688"
       y2="50.068527"
       id="linearGradient3832"
       xlink:href="#linearGradient3737"
       gradientUnits="userSpaceOnUse"
       gradientTransform="matrix(0.625,0,0,0.625,28.5,31.25)" /><filter
       color-interpolation-filters="sRGB"
       id="filter3174"
       x="-0.047720931"
       y="-0.047172415"
       width="1.0954419"
       height="1.0943448"><feGaussianBlur
         stdDeviation="1.71"
         id="feGaussianBlur3176" /></filter><linearGradient
       id="linearGradient3737"><stop
         id="stop3739"
         style="stop-color:#ffffff;stop-opacity:1"
         offset="0" /><stop
         id="stop3741"
         style="stop-color:#ffffff;stop-opacity:0"
         offset="1" /></linearGradient><linearGradient
       x1="45.447727"
       y1="92.539597"
       x2="45.447727"
       y2="7.0165396"
       id="ButtonShadow"
       gradientUnits="userSpaceOnUse"
       gradientTransform="scale(1.0058652,0.994169)"><stop
         id="stop3750"
         style="stop-color:#000000;stop-opacity:1"
         offset="0" /><stop
         id="stop3752"
         style="stop-color:#000000;stop-opacity:0.58823532"
         offset="1" /></linearGradient><linearGradient
       id="linearGradient5010"><stop
         id="stop5012"
         style="stop-color:#000000;stop-opacity:1"
         offset="0" /><stop
         id="stop5014"
         style="stop-color:#000000;stop-opacity:0"
         offset="1" /></linearGradient><linearGradient
       id="linearGradient3778"><stop
         id="stop3780"
         style="stop-color:#499119;stop-opacity:1"
         offset="0" /><stop
         id="stop3782"
         style="stop-color:#8fd625;stop-opacity:1"
         offset="1" /></linearGradient><linearGradient
       id="linearGradient3924-6"><stop
         offset="0"
         style="stop-color:#ffffff;stop-opacity:1"
         id="stop3926-3" /><stop
         offset="0.08071423"
         style="stop-color:#ffffff;stop-opacity:0.23529412"
         id="stop3928-2" /><stop
         offset="0.90786326"
         style="stop-color:#ffffff;stop-opacity:0.15686275"
         id="stop3930-0" /><stop
         offset="1"
         style="stop-color:#ffffff;stop-opacity:0.39215687"
         id="stop3932-6" /></linearGradient><linearGradient
       gradientTransform="matrix(0.67567568,0,0,0.62162162,-15.216213,-10.918912)"
       gradientUnits="userSpaceOnUse"
       xlink:href="#linearGradient3924-6"
       id="linearGradient3027"
       y2="41.759991"
       x2="23.999996"
       y1="6.2399888"
       x1="23.999996" /><linearGradient
       inkscape:collect="always"
       xlink:href="#linearGradient1"
       id="linearGradient51"
       gradientUnits="userSpaceOnUse"
       gradientTransform="matrix(0,4.1109,-5.0469,0,51.828,-49.866)"
       x1="12.738131"
       y1="6.9474688"
       x2="19.315611"
       y2="6.9474688" /><linearGradient
       inkscape:collect="always"
       xlink:href="#linearGradient3924-6"
       id="linearGradient56"
       gradientUnits="userSpaceOnUse"
       gradientTransform="matrix(0.67567568,0,0,0.62162162,-0.216213,17.081087)"
       x1="23.999996"
       y1="6.2399888"
       x2="23.999996"
       y2="41.759991" /></defs><metadata
     id="metadata19"><rdf:RDF><cc:Work
         rdf:about=""><dc:format>image/svg+xml</dc:format><dc:type
           rdf:resource="http://purl.org/dc/dcmitype/StillImage" /></cc:Work></rdf:RDF></metadata><rect
     x="2.5"
     y="2.5"
     width="27"
     height="27"
     rx="3"
     ry="3"
     color="#000000"
     color-rendering="auto"
     fill="url(#linearGradient1)"
     image-rendering="auto"
     shape-rendering="auto"
     solid-color="#000000"
     style="isolation:auto;mix-blend-mode:normal;fill:#1a1a1a"
     id="rect22" /><g
     transform="matrix(.7 0 0 .33333 -.8 15.333)"
     id="g22"><g
       transform="matrix(1.0526 0 0 1.2857 -1.2632 -13.429)"
       opacity=".4"
       id="g21"><rect
         x="38"
         y="40"
         width="5"
         height="7"
         fill="url(#radialGradient2976)"
         id="rect19" /><rect
         transform="scale(-1)"
         x="-10"
         y="-47"
         width="5"
         height="7"
         fill="url(#radialGradient2978)"
         id="rect20" /><rect
         x="10"
         y="40"
         width="28"
         height="7"
         fill="url(#linearGradient2980)"
         id="rect21" /></g></g><g
     transform="translate(-200.05474,-51.475831)"
     id="layer2"
     style="display:none"><path
       d="M 11,7 48,5 85,7 c 3.324,0 6,2.676 6,6 v 73 c 0,3.324 -2.676,6 -6,6 H 11 C 7.676,92 5,89.324 5,86 V 13 C 5,9.676 7.676,7 11,7 Z"
       id="rect3745"
       style="opacity:0.9;fill:url(#ButtonShadow);fill-opacity:1;fill-rule:nonzero;stroke:none;filter:url(#filter3174)" /></g><g
     transform="translate(-200.05474,-51.475831)"
     id="layer4"
     style="display:none"><rect
       width="30"
       height="30"
       rx="2.8125"
       ry="2.8125"
       x="-86"
       y="56"
       transform="rotate(-90,2,2)"
       id="rect3790"
       style="opacity:0.6;fill:#000000;fill-opacity:1;stroke:none;filter:url(#filter3806)" /><rect
       width="30"
       height="30"
       rx="2.8125"
       ry="2.8125"
       x="-88"
       y="56"
       transform="rotate(-90)"
       id="rect2993"
       style="fill:url(#linearGradient3773);fill-opacity:1;stroke:none" /><path
       d="M 58.8125,58 C 57.254375,58 56,59.254375 56,60.8125 v 24.375 c 0,0.873066 0.410816,1.641163 1.03125,2.15625 C 57.02841,87.289908 57,87.242129 57,87.1875 V 62.8125 C 57,61.254375 58.17075,60 59.625,60 h 22.75 C 83.82925,60 85,61.254375 85,62.8125 v 24.375 c 0,0.05463 -0.02841,0.102408 -0.03125,0.15625 C 85.589184,86.828663 86,86.060566 86,85.1875 V 60.8125 C 86,59.254375 84.745625,58 83.1875,58 Z"
       id="rect3775"
       style="opacity:0.5;fill:url(#linearGradient3788);fill-opacity:1;stroke:none" /><path
       d="m 116,63.5 v 8.75 h -5 L 121,86 131,72.25 h -5 V 63.5 Z"
       transform="translate(-50)"
       clip-path="url(#clipPath3823)"
       id="path3810"
       style="display:inline;opacity:0.6;fill:url(#linearGradient3812);fill-opacity:1;fill-rule:nonzero;stroke:none;filter:url(#filter3831)" /><path
       d="m 66,62.5 v 8.75 H 61 L 71,85 81,71.25 H 76 V 62.5 Z"
       id="path4278"
       style="display:inline;fill:url(#linearGradient3832);fill-opacity:1;fill-rule:nonzero;stroke:none" /></g><path
     id="rect22-3"
     style="isolation:auto;mix-blend-mode:normal;fill:url(#linearGradient51)"
     d="M 5.5 2.5 C 3.838 2.5 2.5 3.838 2.5 5.5 L 2.5 18.5 L 11.5 18.5 C 13.162 18.5 14.5 17.162 14.5 15.5 L 14.5 2.5 L 5.5 2.5 z M 17.5 2.5 L 17.5 15.5 C 17.5 17.162 18.838 18.5 20.5 18.5 L 29.5 18.5 L 29.5 5.5 C 29.5 3.838 28.162 2.5 26.5 2.5 L 17.5 2.5 z M 5.5 19.5 C 3.838 19.5 2.5 20.838 2.5 22.5 L 2.5 26.5 C 2.5 28.162 3.838 29.5 5.5 29.5 L 26.5 29.5 C 28.162 29.5 29.5 28.162 29.5 26.5 L 29.5 22.5 C 29.5 20.838 28.162 19.5 26.5 19.5 L 5.5 19.5 z " /><path
     id="rect5505-0"
     style="color:#000000;font-variation-settings:normal;display:inline;overflow:visible;visibility:visible;opacity:0.3;vector-effect:none;fill:#000000;fill-opacity:1;fill-rule:nonzero;stroke:none;stroke-width:1;stroke-linecap:butt;stroke-linejoin:miter;stroke-miterlimit:4;stroke-dasharray:none;stroke-dashoffset:0;stroke-opacity:1;-inkscape-stroke:none;marker:none;enable-background:accumulate;stop-color:#000000"
     d="M 14 13.5 C 14 14.884999 12.884999 16 11.5 16 L 2.5 16 L 2.5 18 L 11.5 18 C 12.884999 18 14 16.884999 14 15.5 L 14 13.5 z M 18 13.5 L 18 15.5 C 18 16.884999 19.115001 18 20.5 18 L 29.5 18 L 29.5 16 L 20.5 16 C 19.115001 16 18 14.884999 18 13.5 z " /><path
     id="path45"
     style="opacity:1;fill:url(#linearGradient45);stroke:none;stroke-width:1;stroke-linecap:round;stroke-linejoin:round;-inkscape-stroke:none;paint-order:stroke fill markers"
     d="M 14.5 -4.09375 A 12 12 0 0 1 4 -16 L 11.5 -16 C 13.162 -16 14.5 -14.662 14.5 -13 L 14.5 -4.09375 z M 17.5 -4.09375 L 17.5 -13 C 17.5 -14.662 18.838 -16 20.5 -16 L 28 -16 A 12 12 0 0 1 17.5 -4.09375 z M 5.5 -20.5 C 5.2943619 -20.5 5.0941879 -20.519548 4.9003906 -20.558594 A 12 12 0 0 1 16 -28 A 12 12 0 0 1 27.099609 -20.558594 C 26.905812 -20.519548 26.705638 -20.5 26.5 -20.5 L 5.5 -20.5 z "
     transform="scale(1,-1)" /><path
     id="rect6741-7"
     style="opacity:0.15;fill:none;stroke:url(#linearGradient3027);stroke-width:0.999998;stroke-linecap:round;stroke-linejoin:round;stroke-miterlimit:4;stroke-dasharray:none;stroke-dashoffset:0;stroke-opacity:1"
     d="m 2.5,15.5 h 9 c 1.108,0 2,-0.892 2,-2 v -11 m 5,0 v 11 c 0,1.108 0.892,2 2,2 h 9"
     sodipodi:nodetypes="cssccssc" /><path
     id="rect6741-7-9-0"
     style="opacity:0.15;fill:none;stroke:url(#linearGradient56);stroke-width:0.999998;stroke-linecap:round;stroke-linejoin:round;stroke-miterlimit:4;stroke-dasharray:none;stroke-dashoffset:0;stroke-opacity:1"
     d="m 28.5,22.499999 c 0,-1.108 -0.892,-2 -2,-2 h -21 c -1.108,0 -2,0.931694 -2,2"
     sodipodi:nodetypes="cssc" /><path
     id="rect24"
     style="opacity:0.7;fill:none;stroke:#1a1a1a;stroke-linecap:round;stroke-linejoin:round"
     d="m 5.5,2.5 h 21 c 1.662,0 3,1.338 3,3 v 21 c 0,1.662 -1.338,3 -3,3 h -21 c -1.662,0 -3,-1.338 -3,-3 v -21 c 0,-1.662 1.338,-3 3,-3 z m -3,16 h 9 c 1.662,0 3,-1.338 3,-3 v -13 m 3,0 v 13 c 0,1.662 1.338,3 3,3 h 9 m 0,4 c 0,-1.662 -1.338,-3 -3,-3 h -21 c -1.662,0 -3,1.338 -3,3"
     sodipodi:nodetypes="ssssssssscssccssccssc" /><rect
     x="3.5"
     y="3.5"
     width="25"
     height="25"
     rx="2"
     ry="2"
     fill="none"
     opacity="0.15"
     stroke="url(#linearGradient3174)"
     stroke-linecap="round"
     stroke-linejoin="round"
     id="rect23"
     style="stroke:url(#linearGradient3174)" /><path
     d="m16 8.5c-4.69 0-8.5 3.81-8.5 8.5s3.81 8.5 8.5 8.5 8.5-3.81 8.5-8.5-3.81-8.5-8.5-8.5z"
     color="#000000"
     fill="#1a1a1a"
     opacity=".15"
     id="path24" /><path
     d="m16 9.5c-4.1382 0-7.5 3.3618-7.5 7.5s3.3618 7.5 7.5 7.5 7.5-3.3618 7.5-7.5-3.3618-7.5-7.5-7.5z"
     color="#000000"
     fill="#1a1a1a"
     opacity=".3"
     id="path25" /><path
     d="m16 8.5c-4.1382 0-7.5 3.3618-7.5 7.5s3.3618 7.5 7.5 7.5 7.5-3.3618 7.5-7.5-3.3618-7.5-7.5-7.5z"
     color="#000000"
     fill="url(#linearGradient11527-6-5)"
     opacity=".99"
     id="path26" /><path
     d="m16 8.5c-4.1382 0-7.5 3.3618-7.5 7.5s3.3618 7.5 7.5 7.5 7.5-3.3618 7.5-7.5-3.3618-7.5-7.5-7.5z"
     color="#000000"
     fill="none"
     opacity=".5"
     stroke="#7a0000"
     stroke-linecap="round"
     stroke-linejoin="round"
     id="path27" /><path
     d="m22.5 16c0 3.59-2.9104 6.5002-6.4999 6.5002-3.5899 0-6.5001-2.9103-6.5001-6.5002 0-3.5898 2.9102-6.4998 6.5001-6.4998 3.5896 0 6.4999 2.91 6.4999 6.4998z"
     color="#000000"
     fill="none"
     opacity=".4"
     stroke="url(#linearGradient12398-3)"
     stroke-linecap="round"
     stroke-linejoin="round"
     id="path28" /><g
     transform="translate(0 .5)"
     id="g45"><circle
       cx="13.971"
       cy="14.109"
       r="1"
       fill="#fafafa"
       opacity=".15"
       style="-inkscape-stroke:none;paint-order:stroke fill markers"
       id="circle28" /><circle
       cx="13.971"
       cy="13.109"
       r="1"
       fill="#c6262e"
       style="-inkscape-stroke:none;paint-order:stroke fill markers"
       id="circle29" /><circle
       cx="17.971"
       cy="14.109"
       r="1"
       fill="#fafafa"
       opacity=".15"
       style="-inkscape-stroke:none;paint-order:stroke fill markers"
       id="circle30" /><circle
       cx="17.971"
       cy="13.109"
       r="1"
       fill="#c6262e"
       style="-inkscape-stroke:none;paint-order:stroke fill markers"
       id="circle31" /><circle
       cx="17.971"
       cy="18.109"
       r="1"
       fill="#fafafa"
       opacity=".15"
       style="-inkscape-stroke:none;paint-order:stroke fill markers"
       id="circle32" /><circle
       cx="17.971"
       cy="17.109"
       r="1"
       fill="#c6262e"
       style="-inkscape-stroke:none;paint-order:stroke fill markers"
       id="circle33" /><circle
       cx="13.971"
       cy="18.109"
       r="1"
       fill="#fafafa"
       opacity=".15"
       style="-inkscape-stroke:none;paint-order:stroke fill markers"
       id="circle34" /><circle
       cx="13.971"
       cy="17.109"
       r="1"
       fill="#c6262e"
       style="-inkscape-stroke:none;paint-order:stroke fill markers"
       id="circle35" /><circle
       cx="11.971"
       cy="16.109"
       r="1"
       fill="#fafafa"
       opacity=".15"
       style="-inkscape-stroke:none;paint-order:stroke fill markers"
       id="circle36" /><circle
       cx="11.971"
       cy="15.109"
       r="1"
       fill="#c6262e"
       style="-inkscape-stroke:none;paint-order:stroke fill markers"
       id="circle37" /><circle
       cx="15.971"
       cy="16.109"
       r="1"
       fill="#fafafa"
       opacity=".15"
       style="-inkscape-stroke:none;paint-order:stroke fill markers"
       id="circle38" /><circle
       cx="15.971"
       cy="15.109"
       r="1"
       fill="#c6262e"
       style="-inkscape-stroke:none;paint-order:stroke fill markers"
       id="circle39" /><circle
       cx="19.971"
       cy="16.109"
       r="1"
       fill="#fafafa"
       opacity=".15"
       style="-inkscape-stroke:none;paint-order:stroke fill markers"
       id="circle40" /><circle
       cx="19.971"
       cy="15.109"
       r="1"
       fill="#c6262e"
       style="-inkscape-stroke:none;paint-order:stroke fill markers"
       id="circle41" /><circle
       cx="15.971"
       cy="20.109"
       r="1"
       fill="#fafafa"
       opacity=".15"
       style="-inkscape-stroke:none;paint-order:stroke fill markers"
       id="circle42" /><circle
       cx="15.971"
       cy="19.109"
       r="1"
       fill="#c6262e"
       style="-inkscape-stroke:none;paint-order:stroke fill markers"
       id="circle43" /><circle
       cx="15.971"
       cy="12.109"
       r="1"
       fill="#fafafa"
       opacity=".15"
       style="-inkscape-stroke:none;paint-order:stroke fill markers"
       id="circle44" /><circle
       cx="15.971"
       cy="11.109"
       r="1"
       fill="#c6262e"
       style="-inkscape-stroke:none;paint-order:stroke fill markers"
       id="circle45" /></g></svg>
