<?xml version="1.0" encoding="UTF-8" standalone="no"?>
<svg
   width="32"
   height="32"
   version="1.1"
   id="svg45"
   sodipodi:docname="32.svg"
   inkscape:version="1.4.3 (0d15f75042, 2025-12-25)"
   xmlns:inkscape="http://www.inkscape.org/namespaces/inkscape"
   xmlns:sodipodi="http://sodipodi.sourceforge.net/DTD/sodipodi-0.dtd"
   xmlns:xlink="http://www.w3.org/1999/xlink"
   xmlns="http://www.w3.org/2000/svg"
   xmlns:svg="http://www.w3.org/2000/svg"
   xmlns:rdf="http://www.w3.org/1999/02/22-rdf-syntax-ns#"
   xmlns:cc="http://creativecommons.org/ns#"
   xmlns:dc="http://purl.org/dc/elements/1.1/">
  <sodipodi:namedview
     id="namedview45"
     pagecolor="#ffffff"
     bordercolor="#000000"
     borderopacity="0.25"
     inkscape:showpageshadow="2"
     inkscape:pageopacity="0.0"
     inkscape:pagecheckerboard="0"
     inkscape:deskcolor="#d1d1d1"
     showgrid="false"
     inkscape:current-layer="svg45">
    <inkscape:grid
       id="grid45"
       units="px"
       originx="0"
       originy="0"
       spacingx="0.5"
       spacingy="0.5"
       empcolor="#0099e5"
       empopacity="0.30196078"
       color="#0099e5"
       opacity="0.078431373"
       empspacing="2"
       enabled="true"
       visible="false" />
  </sodipodi:namedview>
  <defs
     id="defs19">
    <linearGradient
       id="linearGradient53"
       x1="18.079889"
       x2="18.079889"
       y1="6.2399507"
       y2="22.519846"
       gradientTransform="matrix(0.67568,0,0,0.67568,12.78378,-1.21621)"
       gradientUnits="userSpaceOnUse">
      <stop
         stop-color="#fff"
         offset="0"
         id="stop50" />
      <stop
         stop-color="#fff"
         stop-opacity=".23529"
         offset="0.12500001"
         id="stop51" />
      <stop
         stop-color="#fff"
         stop-opacity=".15686"
         offset="0.87500006"
         id="stop52" />
      <stop
         stop-color="#fff"
         stop-opacity=".39216"
         offset="1"
         id="stop53" />
    </linearGradient>
    <linearGradient
       id="linearGradient3174"
       x1="18.079889"
       x2="18.079889"
       y1="6.2399507"
       y2="22.519846"
       gradientTransform="matrix(0.67568,0,0,0.67568,12.78378,-1.21621)"
       gradientUnits="userSpaceOnUse">
      <stop
         stop-color="#fff"
         offset="0"
         id="stop1" />
      <stop
         stop-color="#fff"
         stop-opacity=".23529"
         offset="0.13636366"
         id="stop2" />
      <stop
         stop-color="#fff"
         stop-opacity=".15686"
         offset="0.86363637"
         id="stop3" />
      <stop
         stop-color="#fff"
         stop-opacity=".39216"
         offset="1"
         id="stop4" />
    </linearGradient>
    <radialGradient
       id="radialGradient2976"
       cx="4.993"
       cy="43.5"
       r="2.5"
       gradientTransform="matrix(2.0038,0,0,1.4,22.13186,-17.4)"
       gradientUnits="userSpaceOnUse">
      <stop
         stop-color="#181818"
         offset="0"
         id="stop5" />
      <stop
         stop-color="#181818"
         stop-opacity="0"
         offset="1"
         id="stop6" />
    </radialGradient>
    <radialGradient
       id="radialGradient2978"
       cx="4.993"
       cy="43.5"
       r="2.5"
       gradientTransform="matrix(2.0038,0,0,1.4,-25.869658,-104.4)"
       gradientUnits="userSpaceOnUse">
      <stop
         stop-color="#181818"
         offset="0"
         id="stop7" />
      <stop
         stop-color="#181818"
         stop-opacity="0"
         offset="1"
         id="stop8" />
    </radialGradient>
    <linearGradient
       id="linearGradient2980"
       x1="25.058"
       x2="25.058"
       y1="47.028"
       y2="39.999"
       gradientUnits="userSpaceOnUse">
      <stop
         stop-color="#181818"
         stop-opacity="0"
         offset="0"
         id="stop9" />
      <stop
         stop-color="#181818"
         offset=".5"
         id="stop10" />
      <stop
         stop-color="#181818"
         stop-opacity="0"
         offset="1"
         id="stop11" />
    </linearGradient>
    <linearGradient
       id="linearGradient11527-6-5"
       x1="2035.2"
       x2="2035.2"
       y1="3208.1"
       y2="3242"
       gradientTransform="matrix(.57485 0 0 .42976 -1156 -1369.8)"
       gradientUnits="userSpaceOnUse">
      <stop
         stop-color="#ed5353"
         offset="0"
         id="stop12" />
      <stop
         stop-color="#c6262e"
         offset="1"
         id="stop13" />
    </linearGradient>
    <linearGradient
       id="linearGradient12398-3"
       x1="71.204"
       x2="71.204"
       y1="6.2376"
       y2="44.341"
       gradientTransform="matrix(.35135 0 0 .35135 -9.2037 7.0907)"
       gradientUnits="userSpaceOnUse">
      <stop
         stop-color="#fff"
         offset="0"
         id="stop14" />
      <stop
         stop-color="#fff"
         stop-opacity=".23529"
         offset=".50776"
         id="stop15" />
      <stop
         stop-color="#fff"
         stop-opacity=".15686"
         offset=".83457"
         id="stop16" />
      <stop
         stop-color="#fff"
         stop-opacity=".39216"
         offset="1"
         id="stop17" />
    </linearGradient>
    <linearGradient
       id="linearGradient1"
       x1="9.9863"
       x2="16.655"
       y1="9.7586"
       y2="9.7586"
       gradientTransform="matrix(0,4.1109,-5.0469,0,66.828,-38.866)"
       gradientUnits="userSpaceOnUse">
      <stop
         stop-color="#4d4d4d"
         offset="0"
         id="stop18" />
      <stop
         stop-color="#333"
         offset="1"
         id="stop19" />
    </linearGradient>
    <linearGradient
       inkscape:collect="always"
       xlink:href="#linearGradient1"
       id="linearGradient45"
       gradientUnits="userSpaceOnUse"
       gradientTransform="matrix(0,4.1109,-5.0469,0,81.828,-38.866)"
       x1="9.8192606"
       y1="11.359052"
       x2="13.224841"
       y2="11.359052" />
    <linearGradient
       inkscape:collect="always"
       xlink:href="#linearGradient1"
       id="linearGradient46"
       gradientUnits="userSpaceOnUse"
       gradientTransform="matrix(0,4.1109,-5.0469,0,73.828,-24.866)"
       x1="10.062517"
       y1="11.953476"
       x2="13.468097"
       y2="11.953476" />
    <linearGradient
       inkscape:collect="always"
       xlink:href="#linearGradient3174"
       id="linearGradient49"
       gradientUnits="userSpaceOnUse"
       gradientTransform="matrix(0.67568,0,0,0.67568,-1.21622,-1.21621)"
       x1="18.079889"
       y1="6.2399507"
       x2="18.079889"
       y2="22.519846" />
    <linearGradient
       inkscape:collect="always"
       xlink:href="#linearGradient53"
       id="linearGradient50"
       gradientUnits="userSpaceOnUse"
       gradientTransform="matrix(0.67568,0,0,0.67568,5.78378,13.78379)"
       x1="18.079889"
       y1="4.7599602"
       x2="18.079889"
       y2="22.519846" />
    <linearGradient
       inkscape:collect="always"
       xlink:href="#linearGradient3174"
       id="linearGradient55"
       gradientUnits="userSpaceOnUse"
       gradientTransform="matrix(0.67568,0,0,0.67568,12.78378,-1.21621)"
       x1="18.079889"
       y1="6.2399507"
       x2="18.079889"
       y2="22.519846" />
  </defs>
  <metadata
     id="metadata19">
    <rdf:RDF>
      <cc:Work
         rdf:about="">
        <dc:format>image/svg+xml</dc:format>
        <dc:type
           rdf:resource="http://purl.org/dc/dcmitype/StillImage" />
      </cc:Work>
    </rdf:RDF>
  </metadata>
  <g
     transform="matrix(0.7,0,0,0.33333,-0.8,16.333)"
     id="g22">
    <g
       transform="matrix(1.0526,0,0,1.2857,-1.2632,-13.429)"
       opacity="0.4"
       id="g21">
      <rect
         x="32.14386"
         y="40"
         width="5"
         height="7"
         fill="url(#radialGradient2976)"
         id="rect19"
         style="fill:url(#radialGradient2976)" />
      <rect
         transform="scale(-1)"
         x="-15.857658"
         y="-47"
         width="5"
         height="7"
         fill="url(#radialGradient2978)"
         id="rect20"
         style="fill:url(#radialGradient2978)" />
      <rect
         x="15.857658"
         y="40"
         width="16.286201"
         height="7"
         fill="url(#linearGradient2980)"
         id="rect21"
         style="fill:url(#linearGradient2980)" />
    </g>
  </g>
  <path
     id="rect45"
     style="isolation:auto;mix-blend-mode:normal;fill:url(#linearGradient45)"
     d="M 4.5 1.5 C 2.838 1.5 1.5 2.838 1.5 4.5 L 1.5 12.5 C 1.5 14.162 2.838 15.5 4.5 15.5 L 13.5 15.5 C 14.54586 15.5 15.463419 14.971057 16 14.164062 C 16.536581 14.971057 17.45414 15.5 18.5 15.5 L 27.5 15.5 C 29.162 15.5 30.5 14.162 30.5 12.5 L 30.5 4.5 C 30.5 2.838 29.162 1.5 27.5 1.5 L 18.5 1.5 C 17.45414 1.5 16.536581 2.0289431 16 2.8359375 C 15.463419 2.0289429 14.54586 1.5 13.5 1.5 L 4.5 1.5 z " />
  <path
     id="rect23"
     style="stroke:url(#linearGradient55);fill:none;opacity:0.15"
     d="M 18.5 2.5 C 17.392 2.5 16.5 3.392 16.5 4.5 L 16.5 6.5136719 A 9.5 9.5 0 0 1 25.380859 14.5 L 27.5 14.5 C 28.608 14.5 29.5 13.608 29.5 12.5 L 29.5 4.5 C 29.5 3.392 28.608 2.5 27.5 2.5 L 18.5 2.5 z " />
  <path
     d="m16 8.5c-4.69 0-8.5 3.81-8.5 8.5s3.81 8.5 8.5 8.5 8.5-3.81 8.5-8.5-3.81-8.5-8.5-8.5z"
     color="#000000"
     fill="#1a1a1a"
     opacity=".15"
     id="path24" />
  <rect
     x="7.5"
     y="15.5"
     width="17"
     height="15"
     rx="3"
     ry="3"
     color="#000000"
     color-rendering="auto"
     fill="url(#linearGradient1)"
     image-rendering="auto"
     shape-rendering="auto"
     solid-color="#000000"
     style="isolation:auto;mix-blend-mode:normal;fill:url(#linearGradient46)"
     id="rect46" />
  <path
     id="rect49"
     style="stroke:url(#linearGradient50);fill:none;opacity:0.15"
     d="M 8.5 21.830078 L 8.5 27.5 C 8.5 28.608 9.392 29.5 10.5 29.5 L 21.5 29.5 C 22.608 29.5 23.5 28.608 23.5 27.5 L 23.5 21.830078 A 9.5 9.5 0 0 1 16 25.5 A 9.5 9.5 0 0 1 8.5 21.830078 z " />
  <path
     id="rect24"
     d="m 4.5,1.5 c -1.662,0 -3,1.338 -3,3 v 8 c 0,1.662 1.338,3 3,3 h 6 c -1.662,0 -3,1.338 -3,3 v 9 c 0,1.662 1.338,3 3,3 h 11 c 1.662,0 3,-1.338 3,-3 v -9 c 0,-1.662 -1.338,-3 -3,-3 h 6 c 1.662,0 3,-1.338 3,-3 v -8 c 0,-1.662 -1.338,-3 -3,-3 h -9 C 17.45414,1.5 16.536581,2.0289431 16,2.8359375 15.463419,2.0289429 14.54586,1.5 13.5,1.5 Z"
     sodipodi:nodetypes="sssscsssssscssssscss"
     style="stroke:#1a1a1a;stroke-opacity:1;fill:none;opacity:0.5" />
  <path
     d="m16 9.5c-4.1382 0-7.5 3.3618-7.5 7.5s3.3618 7.5 7.5 7.5 7.5-3.3618 7.5-7.5-3.3618-7.5-7.5-7.5z"
     color="#000000"
     fill="#1a1a1a"
     opacity=".3"
     id="path25" />
  <path
     d="m16 8.5c-4.1382 0-7.5 3.3618-7.5 7.5s3.3618 7.5 7.5 7.5 7.5-3.3618 7.5-7.5-3.3618-7.5-7.5-7.5z"
     color="#000000"
     fill="url(#linearGradient11527-6-5)"
     opacity=".99"
     id="path26" />
  <path
     d="m16 8.5c-4.1382 0-7.5 3.3618-7.5 7.5s3.3618 7.5 7.5 7.5 7.5-3.3618 7.5-7.5-3.3618-7.5-7.5-7.5z"
     color="#000000"
     fill="none"
     opacity=".5"
     stroke="#7a0000"
     stroke-linecap="round"
     stroke-linejoin="round"
     id="path27" />
  <path
     d="m22.5 16c0 3.59-2.9104 6.5002-6.4999 6.5002-3.5899 0-6.5001-2.9103-6.5001-6.5002 0-3.5898 2.9102-6.4998 6.5001-6.4998 3.5896 0 6.4999 2.91 6.4999 6.4998z"
     color="#000000"
     fill="none"
     opacity=".4"
     stroke="url(#linearGradient12398-3)"
     stroke-linecap="round"
     stroke-linejoin="round"
     id="path28" />
  <g
     transform="translate(0 .5)"
     id="g45">
    <circle
       cx="13.971"
       cy="14.109"
       r="1"
       fill="#fafafa"
       opacity=".15"
       style="-inkscape-stroke:none;paint-order:stroke fill markers"
       id="circle28" />
    <circle
       cx="13.971"
       cy="13.109"
       r="1"
       fill="#c6262e"
       style="-inkscape-stroke:none;paint-order:stroke fill markers"
       id="circle29" />
    <circle
       cx="17.971"
       cy="14.109"
       r="1"
       fill="#fafafa"
       opacity=".15"
       style="-inkscape-stroke:none;paint-order:stroke fill markers"
       id="circle30" />
    <circle
       cx="17.971"
       cy="13.109"
       r="1"
       fill="#c6262e"
       style="-inkscape-stroke:none;paint-order:stroke fill markers"
       id="circle31" />
    <circle
       cx="17.971"
       cy="18.109"
       r="1"
       fill="#fafafa"
       opacity=".15"
       style="-inkscape-stroke:none;paint-order:stroke fill markers"
       id="circle32" />
    <circle
       cx="17.971"
       cy="17.109"
       r="1"
       fill="#c6262e"
       style="-inkscape-stroke:none;paint-order:stroke fill markers"
       id="circle33" />
    <circle
       cx="13.971"
       cy="18.109"
       r="1"
       fill="#fafafa"
       opacity=".15"
       style="-inkscape-stroke:none;paint-order:stroke fill markers"
       id="circle34" />
    <circle
       cx="13.971"
       cy="17.109"
       r="1"
       fill="#c6262e"
       style="-inkscape-stroke:none;paint-order:stroke fill markers"
       id="circle35" />
    <circle
       cx="11.971"
       cy="16.109"
       r="1"
       fill="#fafafa"
       opacity=".15"
       style="-inkscape-stroke:none;paint-order:stroke fill markers"
       id="circle36" />
    <circle
       cx="11.971"
       cy="15.109"
       r="1"
       fill="#c6262e"
       style="-inkscape-stroke:none;paint-order:stroke fill markers"
       id="circle37" />
    <circle
       cx="15.971"
       cy="16.109"
       r="1"
       fill="#fafafa"
       opacity=".15"
       style="-inkscape-stroke:none;paint-order:stroke fill markers"
       id="circle38" />
    <circle
       cx="15.971"
       cy="15.109"
       r="1"
       fill="#c6262e"
       style="-inkscape-stroke:none;paint-order:stroke fill markers"
       id="circle39" />
    <circle
       cx="19.971"
       cy="16.109"
       r="1"
       fill="#fafafa"
       opacity=".15"
       style="-inkscape-stroke:none;paint-order:stroke fill markers"
       id="circle40" />
    <circle
       cx="19.971"
       cy="15.109"
       r="1"
       fill="#c6262e"
       style="-inkscape-stroke:none;paint-order:stroke fill markers"
       id="circle41" />
    <circle
       cx="15.971"
       cy="20.109"
       r="1"
       fill="#fafafa"
       opacity=".15"
       style="-inkscape-stroke:none;paint-order:stroke fill markers"
       id="circle42" />
    <circle
       cx="15.971"
       cy="19.109"
       r="1"
       fill="#c6262e"
       style="-inkscape-stroke:none;paint-order:stroke fill markers"
       id="circle43" />
    <circle
       cx="15.971"
       cy="12.109"
       r="1"
       fill="#fafafa"
       opacity=".15"
       style="-inkscape-stroke:none;paint-order:stroke fill markers"
       id="circle44" />
    <circle
       cx="15.971"
       cy="11.109"
       r="1"
       fill="#c6262e"
       style="-inkscape-stroke:none;paint-order:stroke fill markers"
       id="circle45" />
  </g>
  <path
     id="rect48"
     style="stroke:url(#linearGradient49);fill:none;opacity:0.15"
     d="M 4.5 2.5 C 3.392 2.5 2.5 3.392 2.5 4.5 L 2.5 12.5 C 2.5 13.608 3.392 14.5 4.5 14.5 L 6.6191406 14.5 A 9.5 9.5 0 0 1 15.5 6.5136719 L 15.5 4.5 C 15.5 3.392 14.608 2.5 13.5 2.5 L 4.5 2.5 z " />
</svg>
