<?xml version="1.0" encoding="UTF-8"?>
<svg width="48" height="48" version="1.1" xml:space="preserve" xmlns="http://www.w3.org/2000/svg" xmlns:cc="http://creativecommons.org/ns#" xmlns:dc="http://purl.org/dc/elements/1.1/" xmlns:rdf="http://www.w3.org/1999/02/22-rdf-syntax-ns#" xmlns:xlink="http://www.w3.org/1999/xlink"><defs><linearGradient id="linearGradient3024" x1="24" x2="24" y1="6.0315" y2="41.934" gradientTransform="translate(4e-6 1)" gradientUnits="userSpaceOnUse"><stop stop-color="#fff" offset="0"/><stop stop-color="#fff" stop-opacity=".23529" offset=".030309"/><stop stop-color="#fff" stop-opacity=".15686" offset=".97834"/><stop stop-color="#fff" stop-opacity=".39216" offset="1"/></linearGradient><radialGradient id="radialGradient3038" cx="4.993" cy="43.5" r="2.5" gradientTransform="matrix(2.0038,0,0,1.4,27.988,-17.4)" gradientUnits="userSpaceOnUse"><stop stop-color="#181818" offset="0"/><stop stop-color="#181818" stop-opacity="0" offset="1"/></radialGradient><radialGradient id="radialGradient3040" cx="4.993" cy="43.5" r="2.5" gradientTransform="matrix(2.0038,0,0,1.4,-20.012,-104.4)" gradientUnits="userSpaceOnUse"><stop stop-color="#181818" offset="0"/><stop stop-color="#181818" stop-opacity="0" offset="1"/></radialGradient><linearGradient id="linearGradient3042" x1="25.058" x2="25.058" y1="47.028" y2="39.999" gradientUnits="userSpaceOnUse"><stop stop-color="#181818" stop-opacity="0" offset="0"/><stop stop-color="#181818" offset=".5"/><stop stop-color="#181818" stop-opacity="0" offset="1"/></linearGradient><linearGradient id="linearGradient11527-6-5" x1="2035.2" x2="2035.2" y1="3208.1" y2="3242" gradientTransform="matrix(.80479 0 0 .60166 -1616.8 -1916.1)" gradientUnits="userSpaceOnUse"><stop stop-color="#ed5353" offset="0"/><stop stop-color="#c6262e" offset="1"/></linearGradient><linearGradient id="linearGradient12398-3" x1="71.204" x2="71.204" y1="6.2376" y2="44.341" gradientTransform="matrix(.51351 0 0 .51351 -12.836 10.979)" gradientUnits="userSpaceOnUse"><stop stop-color="#fff" offset="0"/><stop stop-color="#fff" stop-opacity=".23529" offset=".50776"/><stop stop-color="#fff" stop-opacity=".15686" offset=".83457"/><stop stop-color="#fff" stop-opacity=".39216" offset="1"/></linearGradient><filter id="filter3831" x="-.0765" y="-.068" width="1.153" height="1.136" color-interpolation-filters="sRGB"><feGaussianBlur stdDeviation="0.6375"/></filter><clipPath id="clipPath3823"><path d="m108.81 58c-1.5581 0-2.8125 1.2544-2.8125 2.8125v24.375c0 1.5581 1.2544 2.8125 2.8125 2.8125h24.375c1.5581 0 2.8125-1.2544 2.8125-2.8125v-24.375c0-1.5581-1.2544-2.8125-2.8125-2.8125zm7.1875 4.5h10v8.75h5l-10 13.75-10-13.75h5z" fill="#fff"/></clipPath><linearGradient id="linearGradient3812" x1="65.263" x2="65.263" y1="64.205" y2="50.069" gradientTransform="matrix(.625 0 0 .625 78.5 32.25)" gradientUnits="userSpaceOnUse"><stop offset="0"/><stop stop-opacity="0" offset="1"/></linearGradient><filter id="filter3806" x="-.096" y="-.096" width="1.192" height="1.192" color-interpolation-filters="sRGB"><feGaussianBlur stdDeviation="1.2"/></filter><linearGradient id="linearGradient3788" x1="70" x2="70" y1="54" y2="75.095" gradientTransform="translate(0,4)" gradientUnits="userSpaceOnUse" xlink:href="#linearGradient3737"/><linearGradient id="linearGradient3773" x1="56" x2="88" y1="72" y2="72" gradientTransform="matrix(.9375 0 0 .9375 -140.5 3.5)" gradientUnits="userSpaceOnUse"><stop stop-color="#499119" offset="0"/><stop stop-color="#8fd625" offset="1"/></linearGradient><linearGradient id="linearGradient3832" x1="65.263" x2="65.263" y1="64.205" y2="50.069" gradientTransform="matrix(.625 0 0 .625 28.5 31.25)" gradientUnits="userSpaceOnUse" xlink:href="#linearGradient3737"/><filter id="filter3174" x="-.047721" y="-.047172" width="1.0954" height="1.0943" color-interpolation-filters="sRGB"><feGaussianBlur stdDeviation="1.71"/></filter><linearGradient id="linearGradient3737"><stop stop-color="#fff" offset="0"/><stop stop-color="#fff" stop-opacity="0" offset="1"/></linearGradient><linearGradient id="ButtonShadow" x1="45.448" x2="45.448" y1="92.54" y2="7.0165" gradientTransform="scale(1.0059 .99417)" gradientUnits="userSpaceOnUse"><stop offset="0"/><stop stop-opacity=".58824" offset="1"/></linearGradient><linearGradient id="linearGradient34" x1="24" x2="24" y1="5.5" y2="44.5" gradientTransform="translate(-33.4,9.7318)" gradientUnits="userSpaceOnUse"><stop stop-color="#4d4d4d" offset="0"/><stop stop-color="#333" offset="1"/></linearGradient><linearGradient id="linearGradient41" x1="24" x2="24" y1="-6" y2="24" gradientUnits="userSpaceOnUse"><stop stop-color="#fff" offset="0"/><stop stop-color="#fff" stop-opacity=".25" offset=".13333"/><stop stop-color="#fff" stop-opacity=".15" offset=".86667"/><stop stop-color="#fff" stop-opacity=".5" offset="1"/></linearGradient><linearGradient id="linearGradient46" x1="24" x2="24" y1="32" y2="61" gradientTransform="translate(0,-1)" gradientUnits="userSpaceOnUse"><stop stop-color="#fff" offset="0"/><stop stop-color="#fff" stop-opacity=".25" offset=".086207"/><stop stop-color="#fff" stop-opacity=".15" offset=".91379"/><stop stop-color="#fff" stop-opacity=".5" offset="1"/></linearGradient><linearGradient id="linearGradient4" x1="2.3885" x2="10.084" y1="2.6792" y2="2.6792" gradientTransform="matrix(0 -4.3993 -5.401 0 42.225 52.507)" gradientUnits="userSpaceOnUse"><stop stop-color="#4d4d4d" offset="0"/><stop stop-color="#1a1a1a" offset="1"/></linearGradient></defs><metadata><rdf:RDF><cc:Work rdf:about=""><dc:format>image/svg+xml</dc:format><dc:type rdf:resource="http://purl.org/dc/dcmitype/StillImage"/></cc:Work></rdf:RDF></metadata><g transform="matrix(1.1579 0 0 .64286 -3.7895 16.036)" opacity=".6"><rect x="38" y="40" width="5" height="7" fill="url(#radialGradient3038)"/><rect transform="scale(-1)" x="-10" y="-47" width="5" height="7" fill="url(#radialGradient3040)"/><rect x="10" y="40" width="28" height="7" fill="url(#linearGradient3042)"/></g><rect x="4.5" y="5.5" width="39" height="39" rx="4" ry="4" color="#000000" color-rendering="auto" fill="#1a1a1a" image-rendering="auto" shape-rendering="auto" solid-color="#000000" style="isolation:auto;mix-blend-mode:normal"/><path d="m8.5 5.5c-2.2091 0-4 1.7909-4 4v18h14c2.2091 0 4-1.7909 4-4v-18zm17 0v18c0 2.2091 1.7909 4 4 4h14v-18c0-2.2091-1.7909-4-4-4zm-17 24c-2.216 0-4 1.784-4 4v7c0 2.216 1.784 4 4 4h31c2.216 0 4-1.784 4-4v-7c0-2.216-1.784-4-4-4z" fill="url(#linearGradient34)" stroke-linecap="square" stroke-linejoin="round" stroke-width="3"/><path d="m22.5 8.0664a17 17 0 0 0-15.5 16.934 17 17 0 0 0 0.18555 2.5h11.314c2.2091 0 4-1.7909 4-4v-15.434zm3 0v15.434c0 2.2091 1.7909 4 4 4h11.314a17 17 0 0 0 0.18555-2.5 17 17 0 0 0-15.5-16.934zm-17 21.434c-0.29812 0-0.58799 0.032465-0.86719 0.09375a17 17 0 0 0 16.367 12.406 17 17 0 0 0 16.367-12.406c-0.2792-0.061285-0.56906-0.09375-0.86719-0.09375h-31z" fill="url(#linearGradient4)" style="-inkscape-stroke:none;paint-order:stroke fill markers"/><path d="m20.951 21c0.02492 0.16943 0.03732 0.34047 0.03711 0.51172 3.21e-4 1.9267-1.5616 3.4886-3.4883 3.4883h-13v3h13a3.5 3.5 0 0 0 3.5-3.5v-3.5zm6.0488 0v3.5a3.5 3.5 0 0 0 3.5 3.5h13v-3h-13c-1.9267 3.22e-4 -3.4886-1.5616-3.4883-3.4883-2.11e-4 -0.17125 0.01219-0.34229 0.03711-0.51172z" opacity=".3"/><path d="m5.8464 32.099c0.50312-0.95118 1.5027-1.5993 2.6536-1.5993h31c1.1324 0 2.1183 0.62742 2.6289 1.5536" fill="none" opacity=".15" stroke="url(#linearGradient46)" stroke-linecap="round" stroke-linejoin="round"/><g transform="translate(-142.05 -51.476)" display="none"><path d="m11 7 37-2 37 2c3.324 0 6 2.676 6 6v73c0 3.324-2.676 6-6 6h-74c-3.324 0-6-2.676-6-6v-73c0-3.324 2.676-6 6-6z" fill="url(#ButtonShadow)" filter="url(#filter3174)" opacity=".9"/></g><g transform="translate(-142.05 -51.476)" display="none"><rect transform="rotate(-90,2,2)" x="-86" y="56" width="30" height="30" rx="2.8125" ry="2.8125" filter="url(#filter3806)" opacity=".6"/><rect transform="rotate(-90)" x="-88" y="56" width="30" height="30" rx="2.8125" ry="2.8125" fill="url(#linearGradient3773)"/><path d="m58.812 58c-1.5581 0-2.8125 1.2544-2.8125 2.8125v24.375c0 0.87307 0.41082 1.6412 1.0312 2.1562-0.00284-0.053842-0.03125-0.10162-0.03125-0.15625v-24.375c0-1.5581 1.1708-2.8125 2.625-2.8125h22.75c1.4542 0 2.625 1.2544 2.625 2.8125v24.375c0 0.05463-0.02841 0.10241-0.03125 0.15625 0.62043-0.51509 1.0312-1.2832 1.0312-2.1562v-24.375c0-1.5581-1.2544-2.8125-2.8125-2.8125z" fill="url(#linearGradient3788)" opacity=".5"/><path transform="translate(-50)" d="m116 63.5v8.75h-5l10 13.75 10-13.75h-5v-8.75z" clip-path="url(#clipPath3823)" display="inline" fill="url(#linearGradient3812)" filter="url(#filter3831)" opacity=".6"/><path d="m66 62.5v8.75h-5l10 13.75 10-13.75h-5v-8.75z" display="inline" fill="url(#linearGradient3832)"/></g><g fill="none" stroke-linejoin="round"><path d="m43 24.5h-13.5c-1.6569 0-3-1.3431-3-3v-15.5m-21.5 18.5h13.5c1.6569 0 3-1.3431 3-3v-15.5" opacity=".15" stroke="url(#linearGradient41)" stroke-linecap="square"/><rect x="5.5" y="6.5" width="37" height="37" rx="3" ry="3" opacity=".15" stroke="url(#linearGradient3024)" stroke-linecap="round"/><path d="m43.5 33.5c0-2.216-1.784-4-4-4h-31c-2.216 0-4 1.784-4 4m0-6h14c2.216 0 4-1.784 4-4v-18m3 0v18c0 2.216 1.784 4 4 4h14m-35-22h31c2.216 0 4 1.784 4 4v31c0 2.216-1.784 4-4 4h-31c-2.216 0-4-1.784-4-4v-31c0-2.216 1.784-4 4-4z" opacity=".7" stroke="#1a1a1a" stroke-linecap="round"/></g><path d="m24 14.5c-6.3453 0-11.5 5.1547-11.5 11.5s5.1547 11.5 11.5 11.5 11.5-5.1547 11.5-11.5-5.1547-11.5-11.5-11.5z" color="#000000" fill="#1a1a1a" opacity=".3"/><path d="m24 15.5c-5.7935 0-10.5 4.7065-10.5 10.5s4.7065 10.5 10.5 10.5 10.5-4.7065 10.5-10.5-4.7065-10.5-10.5-10.5z" color="#000000" fill="#1a1a1a" opacity=".3"/><g transform="translate(0,1)"><path d="m24 13.5c-5.7935 0-10.5 4.7065-10.5 10.5s4.7065 10.5 10.5 10.5 10.5-4.7065 10.5-10.5-4.7065-10.5-10.5-10.5z" color="#000000" fill="url(#linearGradient11527-6-5)" opacity=".99"/><path d="m24 13.5c-5.7935 0-10.5 4.7065-10.5 10.5s4.7065 10.5 10.5 10.5 10.5-4.7065 10.5-10.5-4.7065-10.5-10.5-10.5z" color="#000000" fill="none" opacity=".5" stroke="#7a0000" stroke-linecap="round" stroke-linejoin="round"/><path d="m33.5 24c0 5.2469-4.2536 9.5003-9.4999 9.5003-5.2468 0-9.5001-4.2535-9.5001-9.5003 0-5.2466 4.2534-9.4997 9.5001-9.4997 5.2463 0 9.4999 4.253 9.4999 9.4997z" color="#000000" fill="none" opacity=".4" stroke="url(#linearGradient12398-3)" stroke-linecap="round" stroke-linejoin="round"/></g><path d="m22 19a1 1 0 0 0-1 1 1 1 0 0 0 1 1 1 1 0 0 0 1-1 1 1 0 0 0-1-1zm4 0a1 1 0 0 0-1 1 1 1 0 0 0 1 1 1 1 0 0 0 1-1 1 1 0 0 0-1-1zm-6 2a1 1 0 0 0-1 1 1 1 0 0 0 1 1 1 1 0 0 0 1-1 1 1 0 0 0-1-1zm4 0a1 1 0 0 0-1 1 1 1 0 0 0 1 1 1 1 0 0 0 1-1 1 1 0 0 0-1-1zm4 0a1 1 0 0 0-1 1 1 1 0 0 0 1 1 1 1 0 0 0 1-1 1 1 0 0 0-1-1zm-10 2a1 1 0 0 0-1 1 1 1 0 0 0 1 1 1 1 0 0 0 1-1 1 1 0 0 0-1-1zm4 0a1 1 0 0 0-1 1 1 1 0 0 0 1 1 1 1 0 0 0 1-1 1 1 0 0 0-1-1zm4 0a1 1 0 0 0-1 1 1 1 0 0 0 1 1 1 1 0 0 0 1-1 1 1 0 0 0-1-1zm4 0a1 1 0 0 0-1 1 1 1 0 0 0 1 1 1 1 0 0 0 1-1 1 1 0 0 0-1-1zm-10 2a1 1 0 0 0-1 1 1 1 0 0 0 1 1 1 1 0 0 0 1-1 1 1 0 0 0-1-1zm4 0a1 1 0 0 0-1 1 1 1 0 0 0 1 1 1 1 0 0 0 1-1 1 1 0 0 0-1-1zm4 0a1 1 0 0 0-1 1 1 1 0 0 0 1 1 1 1 0 0 0 1-1 1 1 0 0 0-1-1zm-10 2a1 1 0 0 0-1 1 1 1 0 0 0 1 1 1 1 0 0 0 1-1 1 1 0 0 0-1-1zm4 0a1 1 0 0 0-1 1 1 1 0 0 0 1 1 1 1 0 0 0 1-1 1 1 0 0 0-1-1zm4 0a1 1 0 0 0-1 1 1 1 0 0 0 1 1 1 1 0 0 0 1-1 1 1 0 0 0-1-1zm4 0a1 1 0 0 0-1 1 1 1 0 0 0 1 1 1 1 0 0 0 1-1 1 1 0 0 0-1-1zm-10 2a1 1 0 0 0-1 1 1 1 0 0 0 1 1 1 1 0 0 0 1-1 1 1 0 0 0-1-1zm4 0a1 1 0 0 0-1 1 1 1 0 0 0 1 1 1 1 0 0 0 1-1 1 1 0 0 0-1-1zm4 0a1 1 0 0 0-1 1 1 1 0 0 0 1 1 1 1 0 0 0 1-1 1 1 0 0 0-1-1zm-6 2a1 1 0 0 0-1 1 1 1 0 0 0 1 1 1 1 0 0 0 1-1 1 1 0 0 0-1-1zm4 0a1 1 0 0 0-1 1 1 1 0 0 0 1 1 1 1 0 0 0 1-1 1 1 0 0 0-1-1z" fill="#fafafa" opacity=".15" style="-inkscape-stroke:none;paint-order:stroke fill markers"/><path d="m22 18a1 1 0 0 0-1 1 1 1 0 0 0 1 1 1 1 0 0 0 1-1 1 1 0 0 0-1-1zm4 0a1 1 0 0 0-1 1 1 1 0 0 0 1 1 1 1 0 0 0 1-1 1 1 0 0 0-1-1zm-6 2a1 1 0 0 0-1 1 1 1 0 0 0 1 1 1 1 0 0 0 1-1 1 1 0 0 0-1-1zm4 0a1 1 0 0 0-1 1 1 1 0 0 0 1 1 1 1 0 0 0 1-1 1 1 0 0 0-1-1zm4 0a1 1 0 0 0-1 1 1 1 0 0 0 1 1 1 1 0 0 0 1-1 1 1 0 0 0-1-1zm-10 2a1 1 0 0 0-1 1 1 1 0 0 0 1 1 1 1 0 0 0 1-1 1 1 0 0 0-1-1zm4 0a1 1 0 0 0-1 1 1 1 0 0 0 1 1 1 1 0 0 0 1-1 1 1 0 0 0-1-1zm4 0a1 1 0 0 0-1 1 1 1 0 0 0 1 1 1 1 0 0 0 1-1 1 1 0 0 0-1-1zm4 0a1 1 0 0 0-1 1 1 1 0 0 0 1 1 1 1 0 0 0 1-1 1 1 0 0 0-1-1zm-10 2a1 1 0 0 0-1 1 1 1 0 0 0 1 1 1 1 0 0 0 1-1 1 1 0 0 0-1-1zm4 0a1 1 0 0 0-1 1 1 1 0 0 0 1 1 1 1 0 0 0 1-1 1 1 0 0 0-1-1zm4 0a1 1 0 0 0-1 1 1 1 0 0 0 1 1 1 1 0 0 0 1-1 1 1 0 0 0-1-1zm-10 2a1 1 0 0 0-1 1 1 1 0 0 0 1 1 1 1 0 0 0 1-1 1 1 0 0 0-1-1zm4 0a1 1 0 0 0-1 1 1 1 0 0 0 1 1 1 1 0 0 0 1-1 1 1 0 0 0-1-1zm4 0a1 1 0 0 0-1 1 1 1 0 0 0 1 1 1 1 0 0 0 1-1 1 1 0 0 0-1-1zm4 0a1 1 0 0 0-1 1 1 1 0 0 0 1 1 1 1 0 0 0 1-1 1 1 0 0 0-1-1zm-10 2a1 1 0 0 0-1 1 1 1 0 0 0 1 1 1 1 0 0 0 1-1 1 1 0 0 0-1-1zm4 0a1 1 0 0 0-1 1 1 1 0 0 0 1 1 1 1 0 0 0 1-1 1 1 0 0 0-1-1zm4 0a1 1 0 0 0-1 1 1 1 0 0 0 1 1 1 1 0 0 0 1-1 1 1 0 0 0-1-1zm-6 2a1 1 0 0 0-1 1 1 1 0 0 0 1 1 1 1 0 0 0 1-1 1 1 0 0 0-1-1zm4 0a1 1 0 0 0-1 1 1 1 0 0 0 1 1 1 1 0 0 0 1-1 1 1 0 0 0-1-1z" fill="#c6262e" style="-inkscape-stroke:none;paint-order:stroke fill markers"/></svg>
