<?xml version="1.0" encoding="UTF-8" standalone="no"?>
<svg
   width="48"
   height="48"
   version="1.1"
   id="svg28"
   sodipodi:docname="48.svg"
   inkscape:version="1.4.3 (0d15f75042, 2025-12-25)"
   xmlns:inkscape="http://www.inkscape.org/namespaces/inkscape"
   xmlns:sodipodi="http://sodipodi.sourceforge.net/DTD/sodipodi-0.dtd"
   xmlns:xlink="http://www.w3.org/1999/xlink"
   xmlns="http://www.w3.org/2000/svg"
   xmlns:svg="http://www.w3.org/2000/svg"
   xmlns:rdf="http://www.w3.org/1999/02/22-rdf-syntax-ns#"
   xmlns:cc="http://creativecommons.org/ns#"
   xmlns:dc="http://purl.org/dc/elements/1.1/">
  <sodipodi:namedview
     id="namedview28"
     pagecolor="#ffffff"
     bordercolor="#000000"
     borderopacity="0.25"
     inkscape:showpageshadow="2"
     inkscape:pageopacity="0.0"
     inkscape:pagecheckerboard="0"
     inkscape:deskcolor="#d1d1d1"
     showgrid="false"
     inkscape:current-layer="g21">
    <inkscape:grid
       id="grid28"
       units="px"
       originx="0"
       originy="0"
       spacingx="0.5"
       spacingy="0.5"
       empcolor="#0099e5"
       empopacity="0.30196078"
       color="#0099e5"
       opacity="0.078431373"
       empspacing="2"
       enabled="true"
       visible="false" />
  </sodipodi:namedview>
  <defs
     id="defs19">
    <linearGradient
       id="linearGradient49"
       inkscape:collect="always">
      <stop
         style="stop-color:#ffffff;stop-opacity:0.1;"
         offset="0"
         id="stop49" />
      <stop
         style="stop-color:#000000;stop-opacity:1;"
         offset="1"
         id="stop50" />
    </linearGradient>
    <linearGradient
       id="linearGradient3024"
       x1="18.499996"
       x2="18.499996"
       y1="6"
       y2="24"
       gradientTransform="translate(21.000004,-2)"
       gradientUnits="userSpaceOnUse">
      <stop
         stop-color="#fff"
         offset="0"
         id="stop1" />
      <stop
         stop-color="#fff"
         stop-opacity=".23529"
         offset="0.1388889"
         id="stop2" />
      <stop
         stop-color="#fff"
         stop-opacity=".15686"
         offset="0.8611111"
         id="stop3" />
      <stop
         stop-color="#fff"
         stop-opacity=".39216"
         offset="1"
         id="stop4" />
    </linearGradient>
    <radialGradient
       id="radialGradient3038"
       cx="4.9056954"
       cy="43.222233"
       r="2.5"
       gradientTransform="matrix(2.0038,2.8426799e-7,-5.0348148e-8,1.2444379,21.078944,-10.676259)"
       gradientUnits="userSpaceOnUse"
       fx="4.9056954"
       fy="43.222233">
      <stop
         stop-color="#181818"
         offset="0"
         id="stop5" />
      <stop
         stop-color="#181818"
         stop-opacity="0"
         offset="1"
         id="stop6" />
    </radialGradient>
    <radialGradient
       id="radialGradient3040"
       cx="4.9057817"
       cy="43.777767"
       r="2.5"
       gradientTransform="matrix(2.0038,0,0,1.2444399,-26.921067,-97.589928)"
       gradientUnits="userSpaceOnUse"
       fx="4.9057817"
       fy="43.777767">
      <stop
         stop-color="#181818"
         offset="0"
         id="stop7" />
      <stop
         stop-color="#181818"
         stop-opacity="0"
         offset="1"
         id="stop8" />
    </radialGradient>
    <linearGradient
       id="linearGradient3042"
       x1="24.863546"
       x2="24.863546"
       y1="46.222225"
       y2="40.000031"
       gradientUnits="userSpaceOnUse">
      <stop
         stop-color="#181818"
         stop-opacity="0"
         offset="0"
         id="stop9" />
      <stop
         stop-color="#181818"
         offset=".5"
         id="stop10" />
      <stop
         stop-color="#181818"
         stop-opacity="0"
         offset="1"
         id="stop11" />
    </linearGradient>
    <linearGradient
       id="linearGradient11527-6-5"
       x1="2035.2"
       x2="2035.2"
       y1="3208.1"
       y2="3242"
       gradientTransform="matrix(0.80479,0,0,0.60166,-1616.8,-1916.1)"
       gradientUnits="userSpaceOnUse">
      <stop
         stop-color="#ed5353"
         offset="0"
         id="stop12" />
      <stop
         stop-color="#c6262e"
         offset="1"
         id="stop13" />
    </linearGradient>
    <linearGradient
       id="linearGradient12398-3"
       x1="71.204"
       x2="71.204"
       y1="6.2376"
       y2="44.341"
       gradientTransform="matrix(0.51351,0,0,0.51351,-12.836,10.979)"
       gradientUnits="userSpaceOnUse">
      <stop
         stop-color="#fff"
         offset="0"
         id="stop14" />
      <stop
         stop-color="#fff"
         stop-opacity=".23529"
         offset=".50776"
         id="stop15" />
      <stop
         stop-color="#fff"
         stop-opacity=".15686"
         offset=".83457"
         id="stop16" />
      <stop
         stop-color="#fff"
         stop-opacity=".39216"
         offset="1"
         id="stop17" />
    </linearGradient>
    <linearGradient
       id="linearGradient1"
       x1="44.900002"
       x2="44.900002"
       y1="-6.2318001"
       y2="13.2682"
       gradientTransform="translate(-33.4,9.7318)"
       gradientUnits="userSpaceOnUse">
      <stop
         stop-color="#4d4d4d"
         offset="0"
         id="stop18" />
      <stop
         stop-color="#333"
         offset="1"
         id="stop19" />
    </linearGradient>
    <linearGradient
       inkscape:collect="always"
       xlink:href="#linearGradient1"
       id="linearGradient29"
       gradientUnits="userSpaceOnUse"
       gradientTransform="translate(-10.4,9.7318)"
       x1="44.900002"
       y1="-6.2318001"
       x2="44.900002"
       y2="13.2682" />
    <linearGradient
       inkscape:collect="always"
       xlink:href="#linearGradient1"
       id="linearGradient43"
       gradientUnits="userSpaceOnUse"
       gradientTransform="translate(-32.4,9.7318)"
       x1="44.900002"
       y1="-6.2318001"
       x2="44.900002"
       y2="13.2682" />
    <linearGradient
       inkscape:collect="always"
       xlink:href="#linearGradient3024"
       id="linearGradient44"
       gradientUnits="userSpaceOnUse"
       gradientTransform="translate(-0.999996,-1)"
       x1="18.499996"
       y1="6"
       x2="18.499996"
       y2="24" />
    <linearGradient
       inkscape:collect="always"
       xlink:href="#linearGradient1"
       id="linearGradient46"
       gradientUnits="userSpaceOnUse"
       gradientTransform="translate(-21.4,29.7318)"
       x1="44.900002"
       y1="-6.2318001"
       x2="44.900002"
       y2="13.2682" />
    <linearGradient
       inkscape:collect="always"
       xlink:href="#linearGradient3024"
       id="linearGradient47"
       gradientUnits="userSpaceOnUse"
       gradientTransform="translate(10.000004,19)"
       x1="18.499996"
       y1="6"
       x2="18.499996"
       y2="24" />
    <linearGradient
       inkscape:collect="always"
       xlink:href="#linearGradient3024"
       id="linearGradient48"
       gradientUnits="userSpaceOnUse"
       gradientTransform="translate(21.000004,-1)"
       x1="18.499996"
       y1="6"
       x2="18.499996"
       y2="24" />
    <radialGradient
       inkscape:collect="always"
       xlink:href="#linearGradient49"
       id="radialGradient50"
       cx="24"
       cy="26.5"
       fx="24"
       fy="26.5"
       r="12"
       gradientUnits="userSpaceOnUse"
       gradientTransform="translate(0,1)" />
  </defs>
  <metadata
     id="metadata19">
    <rdf:RDF>
      <cc:Work
         rdf:about="">
        <dc:format>image/svg+xml</dc:format>
        <dc:type
           rdf:resource="http://purl.org/dc/dcmitype/StillImage" />
      </cc:Work>
    </rdf:RDF>
  </metadata>
  <g
     transform="matrix(1.1579,0,0,0.64286,-3.7895,16.28558)"
     opacity="0.6"
     id="g21">
    <rect
       x="30.908974"
       y="40.000031"
       width="5.1817961"
       height="6.2221951"
       fill="url(#radialGradient3038)"
       id="rect19"
       style="fill:url(#radialGradient3038)" />
    <rect
       transform="scale(-1)"
       x="-17.09086"
       y="-46.222225"
       width="5.1818085"
       height="6.2222257"
       fill="url(#radialGradient3040)"
       id="rect20"
       style="fill:url(#radialGradient3040)" />
    <rect
       x="17.090855"
       y="40.000031"
       width="13.81812"
       height="6.2221904"
       fill="url(#linearGradient3042)"
       id="rect21"
       style="fill:url(#linearGradient3042)" />
  </g>
  <rect
     x="23.5"
     y="3.5"
     width="23"
     height="21"
     rx="4"
     ry="4"
     color="#000000"
     color-rendering="auto"
     fill="url(#linearGradient1)"
     image-rendering="auto"
     shape-rendering="auto"
     solid-color="#000000"
     style="isolation:auto;mix-blend-mode:normal;fill:url(#linearGradient29)"
     id="rect28" />
  <rect
     x="1.5"
     y="3.5"
     width="23"
     height="21"
     rx="4"
     ry="4"
     color="#000000"
     color-rendering="auto"
     fill="url(#linearGradient1)"
     image-rendering="auto"
     shape-rendering="auto"
     solid-color="#000000"
     style="isolation:auto;mix-blend-mode:normal;fill:url(#linearGradient43)"
     id="rect41" />
  <path
     id="rect24"
     style="opacity:0.15;fill:none;stroke:url(#linearGradient48)"
     d="m 27.5,4.5 c -1.662,0 -3,1.338 -3,3 v 4.009766 A 12.5,12.5 0 0 1 36.490234,23.5 H 42.5 c 1.662,0 3,-1.338 3,-3 v -13 c 0,-1.662 -1.338,-3 -3,-3 z" />
  <rect
     x="12.5"
     y="23.5"
     width="23"
     height="21"
     rx="4"
     ry="4"
     color="#000000"
     color-rendering="auto"
     fill="url(#linearGradient1)"
     image-rendering="auto"
     shape-rendering="auto"
     solid-color="#000000"
     style="isolation:auto;mix-blend-mode:normal;fill:url(#linearGradient46)"
     id="rect44" />
  <path
     id="rect46"
     style="opacity:0.15;fill:none;stroke:url(#linearGradient47)"
     d="M 13.5,30.783203 V 40.5 c 0,1.662 1.338,3 3,3 h 15 c 1.662,0 3,-1.338 3,-3 V 30.783203 A 12.5,12.5 0 0 1 24,36.5 12.5,12.5 0 0 1 13.5,30.783203 Z" />
  <path
     id="rect29"
     d="m 5.5,3.5 c -2.216,0 -4,1.784 -4,4 v 13 c 0,2.216 1.784,4 4,4 h 8.349609 C 13.02149,25.231828 12.5,26.302878 12.5,27.5 v 13 c 0,2.216 1.784,4 4,4 h 15 c 2.216,0 4,-1.784 4,-4 v -13 c 0,-1.197122 -0.52149,-2.268172 -1.349609,-3 H 42.5 c 2.216,0 4,-1.784 4,-4 v -13 c 0,-2.216 -1.784,-4 -4,-4 h -15 C 25.99036,3.5 24.681209,4.3282005 24,5.5566406 23.318791,4.3282005 22.00964,3.5 20.5,3.5 Z"
     style="opacity:0.5;fill:none;stroke:#1a1a1a;stroke-opacity:1"
     sodipodi:nodetypes="sssscsssssscssssscss" />
  <path
     id="rect43"
     style="opacity:0.15;fill:none;stroke:url(#linearGradient44)"
     d="m 5.5,4.5 c -1.662,0 -3,1.338 -3,3 v 13 c 0,1.662 1.338,3 3,3 h 6.009766 A 12.5,12.5 0 0 1 23.5,11.509766 V 7.5 c 0,-1.662 -1.338,-3 -3,-3 z" />
  <circle
     style="opacity:0.15;fill:url(#radialGradient50);fill-opacity:1;stroke:none;stroke-width:3;stroke-linecap:round;stroke-linejoin:round;stroke-dasharray:none;stroke-opacity:1"
     id="path49"
     cx="24"
     cy="24"
     r="12" />
  <path
     d="m 24,13.5 c -6.3453,0 -11.5,5.1547 -11.5,11.5 0,6.3453 5.1547,11.5 11.5,11.5 6.3453,0 11.5,-5.1547 11.5,-11.5 0,-6.3453 -5.1547,-11.5 -11.5,-11.5 z"
     color="#000000"
     fill="#1a1a1a"
     opacity="0.3"
     id="path22" />
  <path
     d="m 24,14.5 c -5.7935,0 -10.5,4.7065 -10.5,10.5 0,5.7935 4.7065,10.5 10.5,10.5 5.7935,0 10.5,-4.7065 10.5,-10.5 0,-5.7935 -4.7065,-10.5 -10.5,-10.5 z"
     color="#000000"
     fill="#1a1a1a"
     opacity="0.3"
     id="path23" />
  <g
     id="g26">
    <path
       d="m 24,13.5 c -5.7935,0 -10.5,4.7065 -10.5,10.5 0,5.7935 4.7065,10.5 10.5,10.5 5.7935,0 10.5,-4.7065 10.5,-10.5 0,-5.7935 -4.7065,-10.5 -10.5,-10.5 z"
       color="#000000"
       fill="url(#linearGradient11527-6-5)"
       opacity="0.99"
       id="path24"
       style="fill:url(#linearGradient11527-6-5)" />
    <path
       d="m 24,13.5 c -5.7935,0 -10.5,4.7065 -10.5,10.5 0,5.7935 4.7065,10.5 10.5,10.5 5.7935,0 10.5,-4.7065 10.5,-10.5 0,-5.7935 -4.7065,-10.5 -10.5,-10.5 z"
       color="#000000"
       fill="none"
       opacity="0.5"
       stroke="#7a0000"
       stroke-linecap="round"
       stroke-linejoin="round"
       id="path25" />
    <path
       d="m 33.5,24 c 0,5.2469 -4.2536,9.5003 -9.4999,9.5003 C 18.7533,33.5003 14.5,29.2468 14.5,24 c 0,-5.2466 4.2534,-9.4997 9.5001,-9.4997 5.2463,0 9.4999,4.253 9.4999,9.4997 z"
       color="#000000"
       fill="none"
       opacity="0.4"
       stroke="url(#linearGradient12398-3)"
       stroke-linecap="round"
       stroke-linejoin="round"
       id="path26"
       style="stroke:url(#linearGradient12398-3)" />
  </g>
  <path
     d="m 22,18 a 1,1 0 0 0 -1,1 1,1 0 0 0 1,1 1,1 0 0 0 1,-1 1,1 0 0 0 -1,-1 z m 4,0 a 1,1 0 0 0 -1,1 1,1 0 0 0 1,1 1,1 0 0 0 1,-1 1,1 0 0 0 -1,-1 z m -6,2 a 1,1 0 0 0 -1,1 1,1 0 0 0 1,1 1,1 0 0 0 1,-1 1,1 0 0 0 -1,-1 z m 4,0 a 1,1 0 0 0 -1,1 1,1 0 0 0 1,1 1,1 0 0 0 1,-1 1,1 0 0 0 -1,-1 z m 4,0 a 1,1 0 0 0 -1,1 1,1 0 0 0 1,1 1,1 0 0 0 1,-1 1,1 0 0 0 -1,-1 z m -10,2 a 1,1 0 0 0 -1,1 1,1 0 0 0 1,1 1,1 0 0 0 1,-1 1,1 0 0 0 -1,-1 z m 4,0 a 1,1 0 0 0 -1,1 1,1 0 0 0 1,1 1,1 0 0 0 1,-1 1,1 0 0 0 -1,-1 z m 4,0 a 1,1 0 0 0 -1,1 1,1 0 0 0 1,1 1,1 0 0 0 1,-1 1,1 0 0 0 -1,-1 z m 4,0 a 1,1 0 0 0 -1,1 1,1 0 0 0 1,1 1,1 0 0 0 1,-1 1,1 0 0 0 -1,-1 z m -10,2 a 1,1 0 0 0 -1,1 1,1 0 0 0 1,1 1,1 0 0 0 1,-1 1,1 0 0 0 -1,-1 z m 4,0 a 1,1 0 0 0 -1,1 1,1 0 0 0 1,1 1,1 0 0 0 1,-1 1,1 0 0 0 -1,-1 z m 4,0 a 1,1 0 0 0 -1,1 1,1 0 0 0 1,1 1,1 0 0 0 1,-1 1,1 0 0 0 -1,-1 z m -10,2 a 1,1 0 0 0 -1,1 1,1 0 0 0 1,1 1,1 0 0 0 1,-1 1,1 0 0 0 -1,-1 z m 4,0 a 1,1 0 0 0 -1,1 1,1 0 0 0 1,1 1,1 0 0 0 1,-1 1,1 0 0 0 -1,-1 z m 4,0 a 1,1 0 0 0 -1,1 1,1 0 0 0 1,1 1,1 0 0 0 1,-1 1,1 0 0 0 -1,-1 z m 4,0 a 1,1 0 0 0 -1,1 1,1 0 0 0 1,1 1,1 0 0 0 1,-1 1,1 0 0 0 -1,-1 z m -10,2 a 1,1 0 0 0 -1,1 1,1 0 0 0 1,1 1,1 0 0 0 1,-1 1,1 0 0 0 -1,-1 z m 4,0 a 1,1 0 0 0 -1,1 1,1 0 0 0 1,1 1,1 0 0 0 1,-1 1,1 0 0 0 -1,-1 z m 4,0 a 1,1 0 0 0 -1,1 1,1 0 0 0 1,1 1,1 0 0 0 1,-1 1,1 0 0 0 -1,-1 z m -6,2 a 1,1 0 0 0 -1,1 1,1 0 0 0 1,1 1,1 0 0 0 1,-1 1,1 0 0 0 -1,-1 z m 4,0 a 1,1 0 0 0 -1,1 1,1 0 0 0 1,1 1,1 0 0 0 1,-1 1,1 0 0 0 -1,-1 z"
     fill="#fafafa"
     opacity="0.15"
     style="-inkscape-stroke:none;paint-order:stroke fill markers"
     id="path27" />
  <path
     d="m 22,17 a 1,1 0 0 0 -1,1 1,1 0 0 0 1,1 1,1 0 0 0 1,-1 1,1 0 0 0 -1,-1 z m 4,0 a 1,1 0 0 0 -1,1 1,1 0 0 0 1,1 1,1 0 0 0 1,-1 1,1 0 0 0 -1,-1 z m -6,2 a 1,1 0 0 0 -1,1 1,1 0 0 0 1,1 1,1 0 0 0 1,-1 1,1 0 0 0 -1,-1 z m 4,0 a 1,1 0 0 0 -1,1 1,1 0 0 0 1,1 1,1 0 0 0 1,-1 1,1 0 0 0 -1,-1 z m 4,0 a 1,1 0 0 0 -1,1 1,1 0 0 0 1,1 1,1 0 0 0 1,-1 1,1 0 0 0 -1,-1 z m -10,2 a 1,1 0 0 0 -1,1 1,1 0 0 0 1,1 1,1 0 0 0 1,-1 1,1 0 0 0 -1,-1 z m 4,0 a 1,1 0 0 0 -1,1 1,1 0 0 0 1,1 1,1 0 0 0 1,-1 1,1 0 0 0 -1,-1 z m 4,0 a 1,1 0 0 0 -1,1 1,1 0 0 0 1,1 1,1 0 0 0 1,-1 1,1 0 0 0 -1,-1 z m 4,0 a 1,1 0 0 0 -1,1 1,1 0 0 0 1,1 1,1 0 0 0 1,-1 1,1 0 0 0 -1,-1 z m -10,2 a 1,1 0 0 0 -1,1 1,1 0 0 0 1,1 1,1 0 0 0 1,-1 1,1 0 0 0 -1,-1 z m 4,0 a 1,1 0 0 0 -1,1 1,1 0 0 0 1,1 1,1 0 0 0 1,-1 1,1 0 0 0 -1,-1 z m 4,0 a 1,1 0 0 0 -1,1 1,1 0 0 0 1,1 1,1 0 0 0 1,-1 1,1 0 0 0 -1,-1 z m -10,2 a 1,1 0 0 0 -1,1 1,1 0 0 0 1,1 1,1 0 0 0 1,-1 1,1 0 0 0 -1,-1 z m 4,0 a 1,1 0 0 0 -1,1 1,1 0 0 0 1,1 1,1 0 0 0 1,-1 1,1 0 0 0 -1,-1 z m 4,0 a 1,1 0 0 0 -1,1 1,1 0 0 0 1,1 1,1 0 0 0 1,-1 1,1 0 0 0 -1,-1 z m 4,0 a 1,1 0 0 0 -1,1 1,1 0 0 0 1,1 1,1 0 0 0 1,-1 1,1 0 0 0 -1,-1 z m -10,2 a 1,1 0 0 0 -1,1 1,1 0 0 0 1,1 1,1 0 0 0 1,-1 1,1 0 0 0 -1,-1 z m 4,0 a 1,1 0 0 0 -1,1 1,1 0 0 0 1,1 1,1 0 0 0 1,-1 1,1 0 0 0 -1,-1 z m 4,0 a 1,1 0 0 0 -1,1 1,1 0 0 0 1,1 1,1 0 0 0 1,-1 1,1 0 0 0 -1,-1 z m -6,2 a 1,1 0 0 0 -1,1 1,1 0 0 0 1,1 1,1 0 0 0 1,-1 1,1 0 0 0 -1,-1 z m 4,0 a 1,1 0 0 0 -1,1 1,1 0 0 0 1,1 1,1 0 0 0 1,-1 1,1 0 0 0 -1,-1 z"
     fill="#c6262e"
     style="-inkscape-stroke:none;paint-order:stroke fill markers"
     id="path28" />
</svg>
