<?xml version="1.0" encoding="UTF-8" standalone="no"?>
<svg
   width="48"
   height="48"
   version="1.1"
   id="svg28"
   sodipodi:docname="48.svg"
   xml:space="preserve"
   inkscape:version="1.4.3 (0d15f75042, 2025-12-25)"
   xmlns:inkscape="http://www.inkscape.org/namespaces/inkscape"
   xmlns:sodipodi="http://sodipodi.sourceforge.net/DTD/sodipodi-0.dtd"
   xmlns:xlink="http://www.w3.org/1999/xlink"
   xmlns="http://www.w3.org/2000/svg"
   xmlns:svg="http://www.w3.org/2000/svg"
   xmlns:rdf="http://www.w3.org/1999/02/22-rdf-syntax-ns#"
   xmlns:cc="http://creativecommons.org/ns#"
   xmlns:dc="http://purl.org/dc/elements/1.1/"><sodipodi:namedview
     id="namedview28"
     pagecolor="#ffffff"
     bordercolor="#000000"
     borderopacity="0.25"
     inkscape:showpageshadow="2"
     inkscape:pageopacity="0.0"
     inkscape:pagecheckerboard="0"
     inkscape:deskcolor="#d1d1d1"
     showgrid="false"
     inkscape:current-layer="svg28"><inkscape:page
       x="0"
       y="0"
       width="48"
       height="48"
       id="page28"
       margin="0"
       bleed="0" /><inkscape:grid
       id="grid29"
       units="px"
       originx="0"
       originy="0"
       spacingx="0.5"
       spacingy="0.5"
       empcolor="#0099e5"
       empopacity="0.30196078"
       color="#0099e5"
       opacity="0.078431373"
       empspacing="2"
       enabled="true"
       visible="false" /></sodipodi:namedview><defs
     id="defs19"><linearGradient
       id="linearGradient49"
       inkscape:collect="always"><stop
         style="stop-color:#ffffff;stop-opacity:1;"
         offset="0"
         id="stop46" /><stop
         style="stop-color:#ffffff;stop-opacity:0.25;"
         offset="0.0862069"
         id="stop47" /><stop
         style="stop-color:#ffffff;stop-opacity:0.15000001;"
         offset="0.91379309"
         id="stop48" /><stop
         style="stop-color:#ffffff;stop-opacity:0.5;"
         offset="1"
         id="stop49" /></linearGradient><linearGradient
       id="linearGradient40"
       inkscape:collect="always"><stop
         style="stop-color:#ffffff;stop-opacity:1;"
         offset="0"
         id="stop40" /><stop
         style="stop-color:#ffffff;stop-opacity:0.25;"
         offset="0.13333334"
         id="stop42" /><stop
         style="stop-color:#ffffff;stop-opacity:0.15000001;"
         offset="0.86666667"
         id="stop43" /><stop
         style="stop-color:#ffffff;stop-opacity:0.5;"
         offset="1"
         id="stop41" /></linearGradient><inkscape:path-effect
       effect="fillet_chamfer"
       id="path-effect40"
       is_visible="true"
       lpeversion="1"
       nodesatellites_param="F,0,0,1,0,0,0,1 @ F,0,0,1,0,3,0,1 @ F,0,0,1,0,3,0,1 @ F,0,0,1,0,0,0,1"
       radius="0"
       unit="px"
       method="auto"
       mode="F"
       chamfer_steps="1"
       flexible="false"
       use_knot_distance="true"
       apply_no_radius="true"
       apply_with_radius="true"
       only_selected="false"
       hide_knots="false" /><inkscape:path-effect
       effect="fillet_chamfer"
       id="path-effect39"
       is_visible="true"
       lpeversion="1"
       nodesatellites_param="F,0,0,1,0,0,0,1 @ F,0,0,1,0,2.5,0,1 @ F,0,0,1,0,3,0,1 @ F,0,0,1,0,0,0,1"
       radius="0"
       unit="px"
       method="auto"
       mode="F"
       chamfer_steps="1"
       flexible="false"
       use_knot_distance="true"
       apply_no_radius="true"
       apply_with_radius="true"
       only_selected="false"
       hide_knots="false" /><inkscape:path-effect
       effect="fillet_chamfer"
       id="path-effect38"
       is_visible="true"
       lpeversion="1"
       nodesatellites_param="F,0,0,1,0,0,0,1 @ F,0,0,1,0,3.5,0,1 @ F,0,0,1,0,0,0,1 @ F,0,0,1,0,0,0,1 @ F,0,0,1,0,0,0,1 @ F,0,0,1,0,0,0,1 @ F,0,0,1,0,0,0,1 @ F,0,0,1,0,0,0,1"
       radius="0"
       unit="px"
       method="auto"
       mode="F"
       chamfer_steps="1"
       flexible="false"
       use_knot_distance="true"
       apply_no_radius="true"
       apply_with_radius="true"
       only_selected="false"
       hide_knots="false" /><inkscape:path-effect
       effect="fillet_chamfer"
       id="path-effect36"
       is_visible="true"
       lpeversion="1"
       nodesatellites_param="F,0,0,1,0,0,0,1 @ F,0,0,1,0,3.5,0,1 @ F,0,0,1,0,0,0,1 @ F,0,0,1,0,0,0,1 @ F,0,0,1,0,0,0,1 @ F,0,0,1,0,0,0,1 @ F,0,0,1,0,0,0,1 @ F,0,0,1,0,0,0,1"
       radius="0"
       unit="px"
       method="auto"
       mode="F"
       chamfer_steps="1"
       flexible="false"
       use_knot_distance="true"
       apply_no_radius="true"
       apply_with_radius="true"
       only_selected="false"
       hide_knots="false" /><inkscape:path-effect
       effect="fillet_chamfer"
       id="path-effect34"
       is_visible="true"
       lpeversion="1"
       nodesatellites_param="F,0,0,1,0,0,0,1 @ F,0,0,1,0,3,0,1 @ F,0,0,1,0,0,0,1"
       radius="0"
       unit="px"
       method="auto"
       mode="F"
       chamfer_steps="1"
       flexible="false"
       use_knot_distance="true"
       apply_no_radius="true"
       apply_with_radius="true"
       only_selected="false"
       hide_knots="false" /><inkscape:path-effect
       effect="fillet_chamfer"
       id="path-effect33"
       is_visible="true"
       lpeversion="1"
       nodesatellites_param="F,0,0,1,0,0,0,1 @ F,0,0,1,0,4,0,1 @ F,0,0,1,0,0,0,1 @ F,0,0,1,0,4,0,1"
       radius="0"
       unit="px"
       method="auto"
       mode="F"
       chamfer_steps="1"
       flexible="false"
       use_knot_distance="true"
       apply_no_radius="true"
       apply_with_radius="true"
       only_selected="false"
       hide_knots="false" /><inkscape:path-effect
       effect="fillet_chamfer"
       id="path-effect32"
       is_visible="true"
       lpeversion="1"
       nodesatellites_param="F,0,0,1,0,4,0,1 @ F,0,0,1,0,0,0,1 @ F,0,0,1,0,4,0,1 @ F,0,0,1,0,0,0,1"
       radius="0"
       unit="px"
       method="auto"
       mode="F"
       chamfer_steps="1"
       flexible="false"
       use_knot_distance="true"
       apply_no_radius="true"
       apply_with_radius="true"
       only_selected="false"
       hide_knots="false" /><linearGradient
       id="linearGradient3024"
       x1="24"
       x2="24"
       y1="6.0314999"
       y2="41.933998"
       gradientTransform="translate(4e-6,1)"
       gradientUnits="userSpaceOnUse"><stop
         stop-color="#fff"
         offset="0"
         id="stop1" /><stop
         stop-color="#fff"
         stop-opacity=".23529"
         offset=".030309"
         id="stop2" /><stop
         stop-color="#fff"
         stop-opacity=".15686"
         offset=".97834"
         id="stop3" /><stop
         stop-color="#fff"
         stop-opacity=".39216"
         offset="1"
         id="stop4" /></linearGradient><radialGradient
       id="radialGradient3038"
       cx="4.993"
       cy="43.5"
       r="2.5"
       gradientTransform="matrix(2.0038,0,0,1.4,27.988,-17.4)"
       gradientUnits="userSpaceOnUse"><stop
         stop-color="#181818"
         offset="0"
         id="stop5" /><stop
         stop-color="#181818"
         stop-opacity="0"
         offset="1"
         id="stop6" /></radialGradient><radialGradient
       id="radialGradient3040"
       cx="4.993"
       cy="43.5"
       r="2.5"
       gradientTransform="matrix(2.0038,0,0,1.4,-20.012,-104.4)"
       gradientUnits="userSpaceOnUse"><stop
         stop-color="#181818"
         offset="0"
         id="stop7" /><stop
         stop-color="#181818"
         stop-opacity="0"
         offset="1"
         id="stop8" /></radialGradient><linearGradient
       id="linearGradient3042"
       x1="25.058001"
       x2="25.058001"
       y1="47.028"
       y2="39.999001"
       gradientUnits="userSpaceOnUse"><stop
         stop-color="#181818"
         stop-opacity="0"
         offset="0"
         id="stop9" /><stop
         stop-color="#181818"
         offset=".5"
         id="stop10" /><stop
         stop-color="#181818"
         stop-opacity="0"
         offset="1"
         id="stop11" /></linearGradient><linearGradient
       id="linearGradient11527-6-5"
       x1="2035.2"
       x2="2035.2"
       y1="3208.1001"
       y2="3242"
       gradientTransform="matrix(0.80479,0,0,0.60166,-1616.8,-1916.1)"
       gradientUnits="userSpaceOnUse"><stop
         stop-color="#ed5353"
         offset="0"
         id="stop12" /><stop
         stop-color="#c6262e"
         offset="1"
         id="stop13" /></linearGradient><linearGradient
       id="linearGradient12398-3"
       x1="71.204002"
       x2="71.204002"
       y1="6.2375998"
       y2="44.341"
       gradientTransform="matrix(0.51351,0,0,0.51351,-12.836,10.979)"
       gradientUnits="userSpaceOnUse"><stop
         stop-color="#fff"
         offset="0"
         id="stop14" /><stop
         stop-color="#fff"
         stop-opacity=".23529"
         offset=".50776"
         id="stop15" /><stop
         stop-color="#fff"
         stop-opacity=".15686"
         offset=".83457"
         id="stop16" /><stop
         stop-color="#fff"
         stop-opacity=".39216"
         offset="1"
         id="stop17" /></linearGradient><linearGradient
       id="linearGradient1"
       x1="57.965"
       x2="57.965"
       y1="-4.2233"
       y2="34.721001"
       gradientTransform="translate(-33.4,9.7318)"
       gradientUnits="userSpaceOnUse"><stop
         stop-color="#4d4d4d"
         offset="0"
         id="stop18" /><stop
         stop-color="#333"
         offset="1"
         id="stop19" /></linearGradient><linearGradient
       id="linearGradient59"
       x1="9.9863005"
       x2="16.655001"
       y1="9.7586002"
       y2="9.7586002"
       gradientTransform="matrix(0,4.1109,-5.0469,0,66.828,-38.866)"
       gradientUnits="userSpaceOnUse"><stop
         stop-color="#4d4d4d"
         offset="0"
         id="stop58"
         style="stop-color:#4d4d4d;stop-opacity:1" /><stop
         stop-color="#333"
         offset="1"
         id="stop59"
         style="stop-color:#1a1a1a;stop-opacity:1" /></linearGradient><linearGradient
       id="linearGradient3174"
       x1="24"
       x2="24"
       y1="6.2399998"
       y2="41.759998"
       gradientTransform="matrix(0.67568,0,0,0.67568,88.78378,-0.21621)"
       gradientUnits="userSpaceOnUse"><stop
         stop-color="#fff"
         offset="0"
         id="stop1-6" /><stop
         stop-color="#fff"
         stop-opacity=".23529"
         offset=".025915"
         id="stop2-7" /><stop
         stop-color="#fff"
         stop-opacity=".15686"
         offset=".95833"
         id="stop3-5" /><stop
         stop-color="#fff"
         stop-opacity=".39216"
         offset="1"
         id="stop4-3" /></linearGradient><radialGradient
       id="radialGradient2976"
       cx="4.993"
       cy="43.5"
       r="2.5"
       gradientTransform="matrix(2.0038,0,0,1.4,27.988,-17.4)"
       gradientUnits="userSpaceOnUse"><stop
         stop-color="#181818"
         offset="0"
         id="stop5-5" /><stop
         stop-color="#181818"
         stop-opacity="0"
         offset="1"
         id="stop6-6" /></radialGradient><radialGradient
       id="radialGradient2978"
       cx="4.993"
       cy="43.5"
       r="2.5"
       gradientTransform="matrix(2.0038,0,0,1.4,-20.012,-104.4)"
       gradientUnits="userSpaceOnUse"><stop
         stop-color="#181818"
         offset="0"
         id="stop7-2" /><stop
         stop-color="#181818"
         stop-opacity="0"
         offset="1"
         id="stop8-9" /></radialGradient><linearGradient
       id="linearGradient11527-6-5-0"
       x1="2035.2"
       x2="2035.2"
       y1="3208.1001"
       y2="3242"
       gradientTransform="matrix(0.57485,0,0,0.42976,-1098,-1369.8)"
       gradientUnits="userSpaceOnUse"><stop
         stop-color="#ed5353"
         offset="0"
         id="stop12-9" /><stop
         stop-color="#c6262e"
         offset="1"
         id="stop13-3" /></linearGradient><linearGradient
       id="linearGradient12398-3-6"
       x1="71.204002"
       x2="71.204002"
       y1="6.2375998"
       y2="44.341"
       gradientTransform="matrix(0.35135,0,0,0.35135,48.7963,7.0907)"
       gradientUnits="userSpaceOnUse"><stop
         stop-color="#fff"
         offset="0"
         id="stop14-0" /><stop
         stop-color="#fff"
         stop-opacity=".23529"
         offset=".50776"
         id="stop15-6" /><stop
         stop-color="#fff"
         stop-opacity=".15686"
         offset=".83457"
         id="stop16-2" /><stop
         stop-color="#fff"
         stop-opacity=".39216"
         offset="1"
         id="stop17-6" /></linearGradient><linearGradient
       id="linearGradient1-1"
       x1="9.9863005"
       x2="16.655001"
       y1="9.7586002"
       y2="9.7586002"
       gradientTransform="matrix(0,4.1109,-5.0469,0,66.828,-38.866)"
       gradientUnits="userSpaceOnUse"><stop
         stop-color="#4d4d4d"
         offset="0"
         id="stop18-8" /><stop
         stop-color="#333"
         offset="1"
         id="stop19-7" /></linearGradient><filter
       color-interpolation-filters="sRGB"
       id="filter3831"
       x="-0.076499999"
       y="-0.067999999"
       width="1.153"
       height="1.136"><feGaussianBlur
         stdDeviation="0.6375"
         id="feGaussianBlur3833" /></filter><clipPath
       id="clipPath3823"><path
         d="M 108.8125,58 C 107.25437,58 106,59.254375 106,60.8125 v 24.375 C 106,86.745625 107.25437,88 108.8125,88 h 24.375 C 134.74562,88 136,86.745625 136,85.1875 V 60.8125 C 136,59.254375 134.74562,58 133.1875,58 Z M 116,62.5 h 10 v 8.75 h 5 L 121,85 111,71.25 h 5 z"
         id="path3825"
         style="fill:#ffffff;fill-opacity:1;stroke:none" /></clipPath><linearGradient
       x1="65.262688"
       y1="64.205269"
       x2="65.262688"
       y2="50.068527"
       id="linearGradient3812"
       xlink:href="#linearGradient5010"
       gradientUnits="userSpaceOnUse"
       gradientTransform="matrix(0.625,0,0,0.625,78.5,32.25)" /><filter
       color-interpolation-filters="sRGB"
       id="filter3806"
       x="-0.096000004"
       y="-0.096000004"
       width="1.192"
       height="1.192"><feGaussianBlur
         stdDeviation="1.2"
         id="feGaussianBlur3808" /></filter><linearGradient
       x1="70"
       y1="54"
       x2="70"
       y2="75.095024"
       id="linearGradient3788"
       xlink:href="#linearGradient3737"
       gradientUnits="userSpaceOnUse"
       gradientTransform="translate(0,4)" /><linearGradient
       x1="56"
       y1="72"
       x2="88"
       y2="72"
       id="linearGradient3773"
       xlink:href="#linearGradient3778"
       gradientUnits="userSpaceOnUse"
       gradientTransform="matrix(0.9375,0,0,0.9375,-140.5,3.5)" /><linearGradient
       x1="65.262688"
       y1="64.205269"
       x2="65.262688"
       y2="50.068527"
       id="linearGradient3832"
       xlink:href="#linearGradient3737"
       gradientUnits="userSpaceOnUse"
       gradientTransform="matrix(0.625,0,0,0.625,28.5,31.25)" /><filter
       color-interpolation-filters="sRGB"
       id="filter3174"
       x="-0.047720931"
       y="-0.047172415"
       width="1.0954419"
       height="1.0943448"><feGaussianBlur
         stdDeviation="1.71"
         id="feGaussianBlur3176" /></filter><linearGradient
       id="linearGradient3737"><stop
         id="stop3739"
         style="stop-color:#ffffff;stop-opacity:1"
         offset="0" /><stop
         id="stop3741"
         style="stop-color:#ffffff;stop-opacity:0"
         offset="1" /></linearGradient><linearGradient
       x1="45.447727"
       y1="92.539597"
       x2="45.447727"
       y2="7.0165396"
       id="ButtonShadow"
       gradientUnits="userSpaceOnUse"
       gradientTransform="scale(1.0058652,0.994169)"><stop
         id="stop3750"
         style="stop-color:#000000;stop-opacity:1"
         offset="0" /><stop
         id="stop3752"
         style="stop-color:#000000;stop-opacity:0.58823532"
         offset="1" /></linearGradient><linearGradient
       id="linearGradient5010"><stop
         id="stop5012"
         style="stop-color:#000000;stop-opacity:1"
         offset="0" /><stop
         id="stop5014"
         style="stop-color:#000000;stop-opacity:0"
         offset="1" /></linearGradient><linearGradient
       id="linearGradient3778"><stop
         id="stop3780"
         style="stop-color:#499119;stop-opacity:1"
         offset="0" /><stop
         id="stop3782"
         style="stop-color:#8fd625;stop-opacity:1"
         offset="1" /></linearGradient><linearGradient
       id="linearGradient3924-6"><stop
         offset="0"
         style="stop-color:#ffffff;stop-opacity:1"
         id="stop3926-3" /><stop
         offset="0.08071423"
         style="stop-color:#ffffff;stop-opacity:0.23529412"
         id="stop3928-2" /><stop
         offset="0.90786326"
         style="stop-color:#ffffff;stop-opacity:0.15686275"
         id="stop3930-0" /><stop
         offset="1"
         style="stop-color:#ffffff;stop-opacity:0.39215687"
         id="stop3932-6" /></linearGradient><linearGradient
       gradientTransform="matrix(0.67567568,0,0,0.62162162,73.78379,-10.918912)"
       gradientUnits="userSpaceOnUse"
       xlink:href="#linearGradient3924-6"
       id="linearGradient3027"
       y2="41.759991"
       x2="23.999996"
       y1="6.2399888"
       x1="23.999996" /><linearGradient
       inkscape:collect="always"
       xlink:href="#linearGradient1"
       id="linearGradient34"
       x1="24"
       y1="5.5"
       x2="24"
       y2="44.5"
       gradientUnits="userSpaceOnUse" /><linearGradient
       inkscape:collect="always"
       xlink:href="#linearGradient40"
       id="linearGradient41"
       x1="24"
       y1="-6"
       x2="24"
       y2="24"
       gradientUnits="userSpaceOnUse" /><linearGradient
       inkscape:collect="always"
       xlink:href="#linearGradient49"
       id="linearGradient46"
       x1="24"
       y1="32"
       x2="24"
       y2="61"
       gradientUnits="userSpaceOnUse"
       gradientTransform="translate(0,-1)" /><linearGradient
       inkscape:collect="always"
       xlink:href="#linearGradient59"
       id="linearGradient21"
       x1="25"
       y1="43"
       x2="25"
       y2="7"
       gradientUnits="userSpaceOnUse" /></defs><metadata
     id="metadata19"><rdf:RDF><cc:Work
         rdf:about=""><dc:format>image/svg+xml</dc:format><dc:type
           rdf:resource="http://purl.org/dc/dcmitype/StillImage" /></cc:Work></rdf:RDF></metadata><g
     transform="matrix(1.1579,0,0,0.64286,-3.7895,16.036)"
     opacity="0.6"
     id="g21"><rect
       x="38"
       y="40"
       width="5"
       height="7"
       fill="url(#radialGradient3038)"
       id="rect19"
       style="fill:url(#radialGradient3038)" /><rect
       transform="scale(-1)"
       x="-10"
       y="-47"
       width="5"
       height="7"
       fill="url(#radialGradient3040)"
       id="rect20"
       style="fill:url(#radialGradient3040)" /><rect
       x="10"
       y="40"
       width="28"
       height="7"
       fill="url(#linearGradient3042)"
       id="rect21"
       style="fill:url(#linearGradient3042)" /></g><rect
     x="4.5"
     y="5.5"
     width="39"
     height="39"
     rx="4"
     ry="4"
     color="#000000"
     color-rendering="auto"
     fill="url(#linearGradient1)"
     image-rendering="auto"
     shape-rendering="auto"
     solid-color="#000000"
     style="isolation:auto;mix-blend-mode:normal;fill:#1a1a1a;fill-opacity:1"
     id="rect30" /><g
     id="g52"><path
       id="rect29"
       style="fill:url(#linearGradient34);fill-opacity:1;stroke-width:3;stroke-linecap:square;stroke-linejoin:round"
       d="m 8.5,5.5 c -2.209139,0 -4,1.790861 -4,4 v 18 h 13 c 2.209139,0 4,-1.790861 4,-4 v -18 z m 18,0 v 18 c 0,2.209139 1.790861,4 4,4 h 13 v -18 c 0,-2.209139 -1.790861,-4 -4,-4 z m -18,24 c -2.216,0 -4,1.784 -4,4 v 7 c 0,2.216 1.784,4 4,4 h 31 c 2.216,0 4,-1.784 4,-4 v -7 c 0,-2.216 -1.784,-4 -4,-4 z"
       sodipodi:nodetypes="sscsscscsscsscsssssssss" /><path
       id="path1"
       style="fill:url(#linearGradient21);stroke-width:0.996485;stroke-linecap:round;stroke-linejoin:round"
       d="M 21.5 7.1738281 A 18 18 0 0 0 6 25 A 18 18 0 0 0 6.1738281 27.5 L 17.5 27.5 C 19.709139 27.5 21.5 25.709139 21.5 23.5 L 21.5 7.1738281 z M 26.5 7.1738281 L 26.5 23.5 C 26.5 25.709139 28.290861 27.5 30.5 27.5 L 41.826172 27.5 A 18 18 0 0 0 42 25 A 18 18 0 0 0 26.5 7.1738281 z M 8.5 29.5 C 7.8470716 29.5 7.2308377 29.654517 6.6875 29.929688 A 18 18 0 0 0 24 43 A 18 18 0 0 0 41.3125 29.929688 C 40.769162 29.654517 40.152928 29.5 39.5 29.5 L 8.5 29.5 z " /><path
       id="path35"
       style="opacity:0.15;fill:none;fill-opacity:1;stroke:url(#linearGradient41);stroke-width:1;stroke-linecap:square;stroke-linejoin:round;stroke-dasharray:none;stroke-opacity:1"
       d="M 43,24.5 H 30.5 a 3,3 0 0 1 -3,-3 V 6 M 5,24.5 h 12.5 a 3,3 0 0 0 3,-3 V 6" /><path
       id="rect35"
       style="opacity:0.3;fill:#000000;fill-opacity:1;stroke:none;stroke-width:1;stroke-linecap:square;stroke-linejoin:round;stroke-dasharray:none;stroke-opacity:1"
       d="m 20.951172,21 c 0.02492,0.169431 0.03732,0.340466 0.03711,0.511719 C 20.988603,23.438377 19.426658,25.000322 17.5,25 H 17.498 4.5 v 3 h 13 A 3.5,3.5 0 0 0 21,24.5 V 21 Z M 27,21 v 3.5 a 3.5,3.5 0 0 0 3.5,3.5 h 13 V 25 H 30.501953 30.5 c -1.926658,3.22e-4 -3.488603,-1.561623 -3.488281,-3.488281 -2.11e-4,-0.171253 0.01219,-0.342288 0.03711,-0.511719 z" /><path
       style="opacity:0.15;fill:none;fill-opacity:1;stroke:url(#linearGradient46);stroke-width:1;stroke-linecap:round;stroke-linejoin:round;stroke-dasharray:none;stroke-opacity:1"
       d="m 5.5,33.5 a 3,3 0 0 1 3,-3 h 31 a 3,3 0 0 1 3,3"
       id="path38"
       sodipodi:nodetypes="cccc" /></g><path
     d="m 24,14.5 c -6.3453,0 -11.5,5.1547 -11.5,11.5 0,6.3453 5.1547,11.5 11.5,11.5 6.3453,0 11.5,-5.1547 11.5,-11.5 0,-6.3453 -5.1547,-11.5 -11.5,-11.5 z"
     color="#000000"
     fill="#1a1a1a"
     opacity="0.3"
     id="path22" /><path
     d="m 24,15.5 c -5.7935,0 -10.5,4.7065 -10.5,10.5 0,5.7935 4.7065,10.5 10.5,10.5 5.7935,0 10.5,-4.7065 10.5,-10.5 0,-5.7935 -4.7065,-10.5 -10.5,-10.5 z"
     color="#000000"
     fill="#1a1a1a"
     opacity="0.3"
     id="path23" /><rect
     x="4.5"
     y="5.5"
     width="39"
     height="39"
     rx="4"
     ry="4"
     color="#000000"
     fill="none"
     opacity="0.7"
     stroke="#1a1a1a"
     stroke-linecap="round"
     stroke-linejoin="round"
     id="rect23" /><rect
     x="5.5"
     y="6.5"
     width="37"
     height="37"
     rx="3"
     ry="3"
     fill="none"
     opacity="0.15"
     stroke="url(#linearGradient3024)"
     stroke-linecap="round"
     stroke-linejoin="round"
     id="rect24"
     style="stroke:url(#linearGradient3024)" /><g
     id="g26"
     transform="translate(0,1)"><path
       d="m 24,13.5 c -5.7935,0 -10.5,4.7065 -10.5,10.5 0,5.7935 4.7065,10.5 10.5,10.5 5.7935,0 10.5,-4.7065 10.5,-10.5 0,-5.7935 -4.7065,-10.5 -10.5,-10.5 z"
       color="#000000"
       fill="url(#linearGradient11527-6-5)"
       opacity="0.99"
       id="path24"
       style="fill:url(#linearGradient11527-6-5)" /><path
       d="m 24,13.5 c -5.7935,0 -10.5,4.7065 -10.5,10.5 0,5.7935 4.7065,10.5 10.5,10.5 5.7935,0 10.5,-4.7065 10.5,-10.5 0,-5.7935 -4.7065,-10.5 -10.5,-10.5 z"
       color="#000000"
       fill="none"
       opacity="0.5"
       stroke="#7a0000"
       stroke-linecap="round"
       stroke-linejoin="round"
       id="path25" /><path
       d="m 33.5,24 c 0,5.2469 -4.2536,9.5003 -9.4999,9.5003 C 18.7533,33.5003 14.5,29.2468 14.5,24 c 0,-5.2466 4.2534,-9.4997 9.5001,-9.4997 5.2463,0 9.4999,4.253 9.4999,9.4997 z"
       color="#000000"
       fill="none"
       opacity="0.4"
       stroke="url(#linearGradient12398-3)"
       stroke-linecap="round"
       stroke-linejoin="round"
       id="path26"
       style="stroke:url(#linearGradient12398-3)" /></g><path
     d="m 22,19 a 1,1 0 0 0 -1,1 1,1 0 0 0 1,1 1,1 0 0 0 1,-1 1,1 0 0 0 -1,-1 z m 4,0 a 1,1 0 0 0 -1,1 1,1 0 0 0 1,1 1,1 0 0 0 1,-1 1,1 0 0 0 -1,-1 z m -6,2 a 1,1 0 0 0 -1,1 1,1 0 0 0 1,1 1,1 0 0 0 1,-1 1,1 0 0 0 -1,-1 z m 4,0 a 1,1 0 0 0 -1,1 1,1 0 0 0 1,1 1,1 0 0 0 1,-1 1,1 0 0 0 -1,-1 z m 4,0 a 1,1 0 0 0 -1,1 1,1 0 0 0 1,1 1,1 0 0 0 1,-1 1,1 0 0 0 -1,-1 z m -10,2 a 1,1 0 0 0 -1,1 1,1 0 0 0 1,1 1,1 0 0 0 1,-1 1,1 0 0 0 -1,-1 z m 4,0 a 1,1 0 0 0 -1,1 1,1 0 0 0 1,1 1,1 0 0 0 1,-1 1,1 0 0 0 -1,-1 z m 4,0 a 1,1 0 0 0 -1,1 1,1 0 0 0 1,1 1,1 0 0 0 1,-1 1,1 0 0 0 -1,-1 z m 4,0 a 1,1 0 0 0 -1,1 1,1 0 0 0 1,1 1,1 0 0 0 1,-1 1,1 0 0 0 -1,-1 z m -10,2 a 1,1 0 0 0 -1,1 1,1 0 0 0 1,1 1,1 0 0 0 1,-1 1,1 0 0 0 -1,-1 z m 4,0 a 1,1 0 0 0 -1,1 1,1 0 0 0 1,1 1,1 0 0 0 1,-1 1,1 0 0 0 -1,-1 z m 4,0 a 1,1 0 0 0 -1,1 1,1 0 0 0 1,1 1,1 0 0 0 1,-1 1,1 0 0 0 -1,-1 z m -10,2 a 1,1 0 0 0 -1,1 1,1 0 0 0 1,1 1,1 0 0 0 1,-1 1,1 0 0 0 -1,-1 z m 4,0 a 1,1 0 0 0 -1,1 1,1 0 0 0 1,1 1,1 0 0 0 1,-1 1,1 0 0 0 -1,-1 z m 4,0 a 1,1 0 0 0 -1,1 1,1 0 0 0 1,1 1,1 0 0 0 1,-1 1,1 0 0 0 -1,-1 z m 4,0 a 1,1 0 0 0 -1,1 1,1 0 0 0 1,1 1,1 0 0 0 1,-1 1,1 0 0 0 -1,-1 z m -10,2 a 1,1 0 0 0 -1,1 1,1 0 0 0 1,1 1,1 0 0 0 1,-1 1,1 0 0 0 -1,-1 z m 4,0 a 1,1 0 0 0 -1,1 1,1 0 0 0 1,1 1,1 0 0 0 1,-1 1,1 0 0 0 -1,-1 z m 4,0 a 1,1 0 0 0 -1,1 1,1 0 0 0 1,1 1,1 0 0 0 1,-1 1,1 0 0 0 -1,-1 z m -6,2 a 1,1 0 0 0 -1,1 1,1 0 0 0 1,1 1,1 0 0 0 1,-1 1,1 0 0 0 -1,-1 z m 4,0 a 1,1 0 0 0 -1,1 1,1 0 0 0 1,1 1,1 0 0 0 1,-1 1,1 0 0 0 -1,-1 z"
     fill="#fafafa"
     opacity="0.15"
     style="-inkscape-stroke:none;paint-order:stroke fill markers"
     id="path27" /><path
     d="m 22,18 a 1,1 0 0 0 -1,1 1,1 0 0 0 1,1 1,1 0 0 0 1,-1 1,1 0 0 0 -1,-1 z m 4,0 a 1,1 0 0 0 -1,1 1,1 0 0 0 1,1 1,1 0 0 0 1,-1 1,1 0 0 0 -1,-1 z m -6,2 a 1,1 0 0 0 -1,1 1,1 0 0 0 1,1 1,1 0 0 0 1,-1 1,1 0 0 0 -1,-1 z m 4,0 a 1,1 0 0 0 -1,1 1,1 0 0 0 1,1 1,1 0 0 0 1,-1 1,1 0 0 0 -1,-1 z m 4,0 a 1,1 0 0 0 -1,1 1,1 0 0 0 1,1 1,1 0 0 0 1,-1 1,1 0 0 0 -1,-1 z m -10,2 a 1,1 0 0 0 -1,1 1,1 0 0 0 1,1 1,1 0 0 0 1,-1 1,1 0 0 0 -1,-1 z m 4,0 a 1,1 0 0 0 -1,1 1,1 0 0 0 1,1 1,1 0 0 0 1,-1 1,1 0 0 0 -1,-1 z m 4,0 a 1,1 0 0 0 -1,1 1,1 0 0 0 1,1 1,1 0 0 0 1,-1 1,1 0 0 0 -1,-1 z m 4,0 a 1,1 0 0 0 -1,1 1,1 0 0 0 1,1 1,1 0 0 0 1,-1 1,1 0 0 0 -1,-1 z m -10,2 a 1,1 0 0 0 -1,1 1,1 0 0 0 1,1 1,1 0 0 0 1,-1 1,1 0 0 0 -1,-1 z m 4,0 a 1,1 0 0 0 -1,1 1,1 0 0 0 1,1 1,1 0 0 0 1,-1 1,1 0 0 0 -1,-1 z m 4,0 a 1,1 0 0 0 -1,1 1,1 0 0 0 1,1 1,1 0 0 0 1,-1 1,1 0 0 0 -1,-1 z m -10,2 a 1,1 0 0 0 -1,1 1,1 0 0 0 1,1 1,1 0 0 0 1,-1 1,1 0 0 0 -1,-1 z m 4,0 a 1,1 0 0 0 -1,1 1,1 0 0 0 1,1 1,1 0 0 0 1,-1 1,1 0 0 0 -1,-1 z m 4,0 a 1,1 0 0 0 -1,1 1,1 0 0 0 1,1 1,1 0 0 0 1,-1 1,1 0 0 0 -1,-1 z m 4,0 a 1,1 0 0 0 -1,1 1,1 0 0 0 1,1 1,1 0 0 0 1,-1 1,1 0 0 0 -1,-1 z m -10,2 a 1,1 0 0 0 -1,1 1,1 0 0 0 1,1 1,1 0 0 0 1,-1 1,1 0 0 0 -1,-1 z m 4,0 a 1,1 0 0 0 -1,1 1,1 0 0 0 1,1 1,1 0 0 0 1,-1 1,1 0 0 0 -1,-1 z m 4,0 a 1,1 0 0 0 -1,1 1,1 0 0 0 1,1 1,1 0 0 0 1,-1 1,1 0 0 0 -1,-1 z m -6,2 a 1,1 0 0 0 -1,1 1,1 0 0 0 1,1 1,1 0 0 0 1,-1 1,1 0 0 0 -1,-1 z m 4,0 a 1,1 0 0 0 -1,1 1,1 0 0 0 1,1 1,1 0 0 0 1,-1 1,1 0 0 0 -1,-1 z"
     fill="#c6262e"
     style="-inkscape-stroke:none;paint-order:stroke fill markers"
     id="path28" /><g
     transform="translate(-142.05474,-51.475831)"
     id="layer2"
     style="display:none"><path
       d="M 11,7 48,5 85,7 c 3.324,0 6,2.676 6,6 v 73 c 0,3.324 -2.676,6 -6,6 H 11 C 7.676,92 5,89.324 5,86 V 13 C 5,9.676 7.676,7 11,7 Z"
       id="rect3745"
       style="opacity:0.9;fill:url(#ButtonShadow);fill-opacity:1;fill-rule:nonzero;stroke:none;filter:url(#filter3174)" /></g><g
     transform="translate(-142.05474,-51.475831)"
     id="layer4"
     style="display:none"><rect
       width="30"
       height="30"
       rx="2.8125"
       ry="2.8125"
       x="-86"
       y="56"
       transform="rotate(-90,2,2)"
       id="rect3790"
       style="opacity:0.6;fill:#000000;fill-opacity:1;stroke:none;filter:url(#filter3806)" /><rect
       width="30"
       height="30"
       rx="2.8125"
       ry="2.8125"
       x="-88"
       y="56"
       transform="rotate(-90)"
       id="rect2993"
       style="fill:url(#linearGradient3773);fill-opacity:1;stroke:none" /><path
       d="M 58.8125,58 C 57.254375,58 56,59.254375 56,60.8125 v 24.375 c 0,0.873066 0.410816,1.641163 1.03125,2.15625 C 57.02841,87.289908 57,87.242129 57,87.1875 V 62.8125 C 57,61.254375 58.17075,60 59.625,60 h 22.75 C 83.82925,60 85,61.254375 85,62.8125 v 24.375 c 0,0.05463 -0.02841,0.102408 -0.03125,0.15625 C 85.589184,86.828663 86,86.060566 86,85.1875 V 60.8125 C 86,59.254375 84.745625,58 83.1875,58 Z"
       id="rect3775"
       style="opacity:0.5;fill:url(#linearGradient3788);fill-opacity:1;stroke:none" /><path
       d="m 116,63.5 v 8.75 h -5 L 121,86 131,72.25 h -5 V 63.5 Z"
       transform="translate(-50)"
       clip-path="url(#clipPath3823)"
       id="path3810"
       style="display:inline;opacity:0.6;fill:url(#linearGradient3812);fill-opacity:1;fill-rule:nonzero;stroke:none;filter:url(#filter3831)" /><path
       d="m 66,62.5 v 8.75 H 61 L 71,85 81,71.25 H 76 V 62.5 Z"
       id="path4278"
       style="display:inline;fill:url(#linearGradient3832);fill-opacity:1;fill-rule:nonzero;stroke:none" /></g></svg>
